<?xml version="1.0" encoding="UTF-8" standalone="no"?>
<!-- Created with Inkscape (http://www.inkscape.org/) -->

<svg
   version="1.1"
   id="svg18302"
   viewBox="0 0 117.091 119.98999"
   sodipodi:docname="icon_only_cut.svg"
   inkscape:version="1.2.2 (732a01da63, 2022-12-09)"
   xmlns:inkscape="http://www.inkscape.org/namespaces/inkscape"
   xmlns:sodipodi="http://sodipodi.sourceforge.net/DTD/sodipodi-0.dtd"
   xmlns="http://www.w3.org/2000/svg"
   xmlns:svg="http://www.w3.org/2000/svg">
  <defs
     id="defs18306">
    <clipPath
       clipPathUnits="userSpaceOnUse"
       id="clipPath18330">
      <path
         d="M 0,0 H 151 V 151 H 0 Z"
         id="path18328" />
    </clipPath>
    <clipPath
       clipPathUnits="userSpaceOnUse"
       id="clipPath18350">
      <path
         d="M 0,0 H 151 V 151 H 0 Z"
         id="path18348" />
    </clipPath>
    <clipPath
       clipPathUnits="userSpaceOnUse"
       id="clipPath18370">
      <path
         d="M 0,0 H 151 V 151 H 0 Z"
         id="path18368" />
    </clipPath>
    <clipPath
       clipPathUnits="userSpaceOnUse"
       id="clipPath18390">
      <path
         d="M 0,0 H 151 V 151 H 0 Z"
         id="path18388" />
    </clipPath>
    <clipPath
       clipPathUnits="userSpaceOnUse"
       id="clipPath18410">
      <path
         d="M 0,0 H 151 V 151 H 0 Z"
         id="path18408" />
    </clipPath>
    <clipPath
       clipPathUnits="userSpaceOnUse"
       id="clipPath18430">
      <path
         d="M 0,0 H 151 V 151 H 0 Z"
         id="path18428" />
    </clipPath>
    <clipPath
       clipPathUnits="userSpaceOnUse"
       id="clipPath18450">
      <path
         d="M 0,0 H 151 V 151 H 0 Z"
         id="path18448" />
    </clipPath>
    <clipPath
       clipPathUnits="userSpaceOnUse"
       id="clipPath1788">
      <g
         id="g1802">
        <g
           id="g1800">
          <g
             id="g1798">
            <g
               id="g1796">
              <g
                 id="g1794">
                <g
                   id="g1792">
                  <path
                     d="M 49.975663,37.355256 H 132.66342 V 120.04627 H 49.975663 Z"
                     id="path1790"
                     style="stroke-width:0.815035" />
                </g>
              </g>
            </g>
          </g>
        </g>
      </g>
    </clipPath>
    <clipPath
       clipPathUnits="userSpaceOnUse"
       id="clipPath1819">
      <g
         id="g1833">
        <g
           id="g1831">
          <g
             id="g1829">
            <g
               id="g1827">
              <g
                 id="g1825">
                <g
                   id="g1823">
                  <path
                     d="M 49.975663,37.355256 H 132.66342 V 120.04627 H 49.975663 Z"
                     id="path1821"
                     style="stroke-width:0.815035" />
                </g>
              </g>
            </g>
          </g>
        </g>
      </g>
    </clipPath>
    <clipPath
       clipPathUnits="userSpaceOnUse"
       id="clipPath1850">
      <g
         id="g1864">
        <g
           id="g1862">
          <g
             id="g1860">
            <g
               id="g1858">
              <g
                 id="g1856">
                <g
                   id="g1854">
                  <path
                     d="M 49.975663,37.355256 H 132.66342 V 120.04627 H 49.975663 Z"
                     id="path1852"
                     style="stroke-width:0.815035" />
                </g>
              </g>
            </g>
          </g>
        </g>
      </g>
    </clipPath>
    <clipPath
       clipPathUnits="userSpaceOnUse"
       id="clipPath1881">
      <g
         id="g1895">
        <g
           id="g1893">
          <g
             id="g1891">
            <g
               id="g1889">
              <g
                 id="g1887">
                <g
                   id="g1885">
                  <path
                     d="M 49.975663,37.355256 H 132.66342 V 120.04627 H 49.975663 Z"
                     id="path1883"
                     style="stroke-width:0.815035" />
                </g>
              </g>
            </g>
          </g>
        </g>
      </g>
    </clipPath>
    <clipPath
       clipPathUnits="userSpaceOnUse"
       id="clipPath1912">
      <g
         id="g1926">
        <g
           id="g1924">
          <g
             id="g1922">
            <g
               id="g1920">
              <g
                 id="g1918">
                <g
                   id="g1916">
                  <path
                     d="M 49.975663,37.355256 H 132.66342 V 120.04627 H 49.975663 Z"
                     id="path1914"
                     style="stroke-width:0.815035" />
                </g>
              </g>
            </g>
          </g>
        </g>
      </g>
    </clipPath>
    <clipPath
       clipPathUnits="userSpaceOnUse"
       id="clipPath1943">
      <g
         id="g1957">
        <g
           id="g1955">
          <g
             id="g1953">
            <g
               id="g1951">
              <g
                 id="g1949">
                <g
                   id="g1947">
                  <path
                     d="M 49.975663,37.355256 H 132.66342 V 120.04627 H 49.975663 Z"
                     id="path1945"
                     style="stroke-width:0.815035" />
                </g>
              </g>
            </g>
          </g>
        </g>
      </g>
    </clipPath>
    <clipPath
       clipPathUnits="userSpaceOnUse"
       id="clipPath1974">
      <g
         id="g1988">
        <g
           id="g1986">
          <g
             id="g1984">
            <g
               id="g1982">
              <g
                 id="g1980">
                <g
                   id="g1978">
                  <path
                     d="M 49.975663,37.355256 H 132.66342 V 120.04627 H 49.975663 Z"
                     id="path1976"
                     style="stroke-width:0.815035" />
                </g>
              </g>
            </g>
          </g>
        </g>
      </g>
    </clipPath>
    <clipPath
       clipPathUnits="userSpaceOnUse"
       id="clipPath2005">
      <g
         id="g2019">
        <g
           id="g2017">
          <g
             id="g2015">
            <g
               id="g2013">
              <g
                 id="g2011">
                <g
                   id="g2009">
                  <path
                     d="M 49.975663,37.355256 H 132.66342 V 120.04627 H 49.975663 Z"
                     id="path2007"
                     style="stroke-width:0.815035" />
                </g>
              </g>
            </g>
          </g>
        </g>
      </g>
    </clipPath>
    <clipPath
       clipPathUnits="userSpaceOnUse"
       id="clipPath2036">
      <g
         id="g2050">
        <g
           id="g2048">
          <g
             id="g2046">
            <g
               id="g2044">
              <g
                 id="g2042">
                <g
                   id="g2040">
                  <path
                     d="M 49.975663,37.355256 H 132.66342 V 120.04627 H 49.975663 Z"
                     id="path2038"
                     style="stroke-width:0.815035" />
                </g>
              </g>
            </g>
          </g>
        </g>
      </g>
    </clipPath>
    <clipPath
       clipPathUnits="userSpaceOnUse"
       id="clipPath2067">
      <g
         id="g2081">
        <g
           id="g2079">
          <g
             id="g2077">
            <g
               id="g2075">
              <g
                 id="g2073">
                <g
                   id="g2071">
                  <path
                     d="M 49.975663,37.355256 H 132.66342 V 120.04627 H 49.975663 Z"
                     id="path2069"
                     style="stroke-width:0.815035" />
                </g>
              </g>
            </g>
          </g>
        </g>
      </g>
    </clipPath>
    <clipPath
       clipPathUnits="userSpaceOnUse"
       id="clipPath2098">
      <g
         id="g2112">
        <g
           id="g2110">
          <g
             id="g2108">
            <g
               id="g2106">
              <g
                 id="g2104">
                <g
                   id="g2102">
                  <path
                     d="M 49.975663,37.355256 H 132.66342 V 120.04627 H 49.975663 Z"
                     id="path2100"
                     style="stroke-width:0.815035" />
                </g>
              </g>
            </g>
          </g>
        </g>
      </g>
    </clipPath>
    <clipPath
       clipPathUnits="userSpaceOnUse"
       id="clipPath2129">
      <g
         id="g2143">
        <g
           id="g2141">
          <g
             id="g2139">
            <g
               id="g2137">
              <g
                 id="g2135">
                <g
                   id="g2133">
                  <path
                     d="M 49.975663,37.355256 H 132.66342 V 120.04627 H 49.975663 Z"
                     id="path2131"
                     style="stroke-width:0.815035" />
                </g>
              </g>
            </g>
          </g>
        </g>
      </g>
    </clipPath>
    <clipPath
       clipPathUnits="userSpaceOnUse"
       id="clipPath1255">
      <g
         id="g1269">
        <g
           id="g1267">
          <g
             id="g1265">
            <g
               id="g1263">
              <g
                 id="g1261">
                <g
                   id="g1259">
                  <path
                     d="M 49.975663,37.355256 H 132.66342 V 120.04627 H 49.975663 Z"
                     id="path1257"
                     style="stroke-width:0.815035" />
                </g>
              </g>
            </g>
          </g>
        </g>
      </g>
    </clipPath>
    <clipPath
       clipPathUnits="userSpaceOnUse"
       id="clipPath1286">
      <g
         id="g1300">
        <g
           id="g1298">
          <g
             id="g1296">
            <g
               id="g1294">
              <g
                 id="g1292">
                <g
                   id="g1290">
                  <path
                     d="M 49.975663,37.355256 H 132.66342 V 120.04627 H 49.975663 Z"
                     id="path1288"
                     style="stroke-width:0.815035" />
                </g>
              </g>
            </g>
          </g>
        </g>
      </g>
    </clipPath>
  </defs>
  <sodipodi:namedview
     id="namedview18304"
     pagecolor="#ffffff"
     bordercolor="#000000"
     borderopacity="0.25"
     inkscape:showpageshadow="2"
     inkscape:pageopacity="0.0"
     inkscape:pagecheckerboard="0"
     inkscape:deskcolor="#d1d1d1"
     showgrid="false"
     inkscape:zoom="6.675088"
     inkscape:cx="44.343985"
     inkscape:cy="57.677142"
     inkscape:window-width="1920"
     inkscape:window-height="1137"
     inkscape:window-x="-8"
     inkscape:window-y="-8"
     inkscape:window-maximized="1"
     inkscape:current-layer="g18310">
    <inkscape:page
       x="0"
       y="0"
       id="page18308"
       width="117.091"
       height="119.98999"
       inkscape:export-filename="icon_only.png"
       inkscape:export-xdpi="300"
       inkscape:export-ydpi="300" />
  </sodipodi:namedview>
  <g
     id="g18310"
     inkscape:groupmode="layer"
     inkscape:label="Page 1"
     transform="matrix(1.3333333,0,0,1.3333333,-64.162297,-43.653373)">
    <g
       id="g22105">
      <g
         id="g18312"
         transform="translate(7.5000003,7.5000006)"
         style="fill:#4472c4;fill-opacity:1" />
      <path
         id="path18340"
         style="color:#000000;fill:#4472c4;stroke-linecap:square;stroke-linejoin:round;stroke-miterlimit:10;-inkscape-stroke:none;fill-opacity:1"
         d="M 85.352194 41.091105 A 0.81511649 0.81511649 0 0 0 84.438131 41.410441 L 83.877096 42.232218 A 0.81511649 0.81511649 0 0 0 83.740865 42.765421 L 83.824362 43.689738 A 0.81511649 0.81511649 0 0 0 83.828756 43.708781 L 83.922506 44.51298 L 83.994283 45.31425 A 0.81511649 0.81511649 0 0 0 83.998678 45.35966 L 84.115865 46.150675 L 84.194967 46.941691 L 84.269674 47.744425 L 84.364889 48.945597 A 0.81511649 0.81511649 0 0 0 84.382467 49.062785 L 84.402975 49.144816 L 84.408834 49.818644 L 84.375143 50.630168 L 84.271139 51.730265 A 0.81511649 0.81511649 0 0 0 84.271139 51.733195 L 84.197897 52.543254 L 84.11733 53.375285 L 83.866842 54.87968 A 0.81511649 0.81511649 0 0 0 83.866842 54.885539 L 83.736471 55.713176 L 83.377584 57.117961 A 0.81511649 0.81511649 0 0 0 83.374655 57.120891 L 83.163717 57.958781 L 82.576315 59.416301 L 82.270162 60.167766 L 81.656393 61.67216 L 81.339987 62.417766 L 81.02358 63.160441 L 80.695455 63.897258 L 80.365865 64.637004 L 80.023092 65.37382 A 0.81511649 0.81511649 0 0 0 80.014303 65.391399 L 79.694967 66.12382 A 0.81511649 0.81511649 0 0 0 79.687643 66.144328 L 79.337545 67.01591 L 79.031393 67.764446 L 78.734029 68.47343 A 0.81511649 0.81511649 0 0 0 78.709127 68.543742 L 78.275533 69.910442 L 78.000143 70.607707 A 0.81511649 0.81511649 0 0 0 77.969381 70.707317 L 77.607565 72.144328 L 77.56069 72.303996 A 1.630233 1.630233 0 0 1 77.566549 72.306926 L 78.476217 72.916301 A 1.630233 1.630233 0 0 1 78.68569 73.080364 L 78.96108 73.338176 L 78.968404 73.29716 L 79.176412 72.585246 A 0.81511649 0.81511649 0 0 0 79.183736 72.55595 L 79.536764 71.154094 L 79.800436 70.480266 A 0.81511649 0.81511649 0 0 0 79.820943 70.428996 L 80.251608 69.069621 L 80.537252 68.389934 A 0.81511649 0.81511649 0 0 0 80.538717 68.384074 L 80.847799 67.628215 A 0.81511649 0.81511649 0 0 0 80.849264 67.625285 L 81.194967 66.763957 L 81.505514 66.050578 L 81.845358 65.316692 A 0.81511649 0.81511649 0 0 0 81.849752 65.307902 L 82.183737 64.562297 A 0.81511649 0.81511649 0 0 0 82.185201 64.560832 L 82.516256 63.813762 A 0.81511649 0.81511649 0 0 0 82.522115 63.804973 L 82.839987 63.054973 L 83.157858 62.302043 A 0.81511649 0.81511649 0 0 0 83.162252 62.293254 L 83.778951 60.783 A 0.81511649 0.81511649 0 0 0 83.781881 60.781535 L 84.086569 60.027141 A 0.81511649 0.81511649 0 0 0 84.086569 60.025676 L 84.695944 58.516887 A 0.81511649 0.81511649 0 0 0 84.7311 58.411418 L 84.955221 57.520793 L 85.324362 56.079387 A 0.81511649 0.81511649 0 0 0 85.340475 56.006144 L 85.476705 55.141887 L 85.630514 54.216105 L 85.897116 54.941203 A 0.81511649 0.81511649 0 0 0 85.955709 55.06425 L 86.502096 56.019328 A 0.81511649 0.81511649 0 0 0 86.597311 56.154094 L 86.614889 56.173137 L 86.676412 55.515422 A 1.630233 1.630233 0 0 1 86.676412 55.503703 L 86.787741 54.421183 L 86.819967 53.653605 L 86.818502 52.912394 A 1.630233 1.630233 0 0 1 86.79653 52.767375 L 86.776022 52.477336 L 86.664694 52.099406 L 86.459616 51.380168 L 86.291159 50.353312 L 86.163717 49.549113 A 0.81511649 0.81511649 0 0 0 86.154928 49.493449 L 86.031881 48.951457 L 86.015768 48.202922 L 86.04653 47.120402 A 0.81511649 0.81511649 0 0 0 86.04653 47.064738 L 86.011373 46.238566 L 85.990866 45.437297 L 85.982076 44.627238 A 0.81511649 0.81511649 0 0 0 85.980612 44.580363 L 85.929342 43.789347 L 85.926412 43.001261 L 85.926412 41.868937 A 0.81511649 0.81511649 0 0 0 85.352194 41.091105 z M 105.3268 57.054973 L 104.51235 57.07548 L 102.90102 57.116496 L 102.08657 57.132609 A 0.81511649 0.81511649 0 0 0 102.08364 57.132609 L 101.26919 57.151652 A 0.81511649 0.81511649 0 0 0 101.25893 57.151652 L 100.44301 57.179484 A 0.81511649 0.81511649 0 0 0 100.44155 57.180949 L 100.16176 57.192668 A 1.630233 1.630233 0 0 1 100.19692 57.309855 L 100.23647 58.235637 A 1.630233 1.630233 0 0 1 100.23647 58.310344 L 100.23501 58.820109 L 100.50454 58.809855 L 101.3102 58.780559 L 102.12173 58.76298 L 102.93325 58.745402 A 0.81511649 0.81511649 0 0 0 102.93764 58.745402 L 104.55337 58.704387 L 105.36782 58.685344 L 105.3268 57.054973 z M 96.939108 57.282023 L 96.763327 57.287883 L 96.797018 57.509074 A 1.630233 1.630233 0 0 1 96.808737 57.617473 L 96.848288 58.100871 A 1.630233 1.630233 0 0 1 96.851217 57.993937 L 96.939108 57.282023 z M 69.53774 67.95341 L 68.302877 67.95634 A 0.81511649 0.81511649 0 0 0 68.256002 67.95927 L 67.399068 68.009074 A 0.81511649 0.81511649 0 0 0 67.360982 68.013469 L 66.320943 68.124797 A 0.81511649 0.81511649 0 0 0 66.316549 68.124797 L 65.50649 68.214153 A 0.81511649 0.81511649 0 0 0 65.491842 68.214153 L 64.66274 68.319621 A 0.81511649 0.81511649 0 0 0 64.623189 68.325481 L 63.684224 68.489543 L 62.887349 68.616985 A 0.81511649 0.81511649 0 0 0 62.882955 68.616985 L 62.075826 68.747356 A 0.81511649 0.81511649 0 0 0 62.046529 68.75468 L 61.240865 68.914348 L 59.778951 69.197063 A 0.81511649 0.81511649 0 0 0 59.714498 69.213176 L 58.949849 69.425578 L 58.179341 69.592571 L 57.382466 69.758098 L 56.585591 69.923625 L 56.918111 71.520305 L 57.716451 71.353313 L 58.513326 71.187785 A 0.81511649 0.81511649 0 0 0 58.519185 71.184856 L 59.31606 71.014934 A 0.81511649 0.81511649 0 0 0 59.362935 71.003215 L 60.121724 70.792278 L 61.552877 70.515422 A 0.81511649 0.81511649 0 0 0 61.558736 70.513957 L 62.351216 70.355754 L 63.142232 70.226848 L 63.944967 70.099407 A 0.81511649 0.81511649 0 0 0 63.959615 70.097942 L 64.885396 69.935344 L 65.69106 69.83427 L 66.493795 69.743449 L 67.516256 69.636516 L 68.330709 69.588176 L 69.493795 69.583781 L 71.033346 69.761028 L 72.228658 70.068645 L 73.176412 70.48466 L 73.964498 71.020793 L 74.1769 71.224407 L 74.409811 71.247844 A 1.630233 1.630233 0 0 1 74.632467 71.287395 L 75.96108 71.61552 A 1.630233 1.630233 0 0 1 76.207174 71.697551 L 76.740377 71.924602 L 76.651022 71.734172 A 0.81511649 0.81511649 0 0 0 76.583639 71.61845 L 75.936178 70.67509 A 0.81511649 0.81511649 0 0 0 75.827779 70.549114 L 75.045553 69.799114 A 0.81511649 0.81511649 0 0 0 74.940084 69.712688 L 74.031881 69.095989 A 0.81511649 0.81511649 0 0 0 73.902975 69.022746 L 72.826314 68.548137 A 0.81511649 0.81511649 0 0 0 72.698873 68.505656 L 71.384908 68.167278 A 0.81511649 0.81511649 0 0 0 71.275045 68.148235 L 69.632955 67.95927 A 0.81511649 0.81511649 0 0 0 69.53774 67.95341 z M 76.467916 78.421184 L 76.412252 78.906047 A 0.81511649 0.81511649 0 0 0 76.407857 78.951458 L 76.38442 79.344036 L 76.541158 79.322063 A 1.630233 1.630233 0 0 1 76.697897 79.308879 L 77.556295 79.273723 A 1.630233 1.630233 0 0 1 77.588522 79.273723 L 78.360494 79.256145 L 78.357565 79.165325 A 0.81511649 0.81511649 0 0 0 78.3561 79.111125 L 78.323873 78.78886 L 78.241842 78.753704 L 77.128561 78.488567 L 76.467916 78.421184 z M 78.463033 82.513958 L 77.673483 82.531536 L 76.908834 82.562297 L 76.101705 82.673626 L 76.032857 83.230266 A 0.81511649 0.81511649 0 0 0 76.031393 83.269817 L 75.972799 84.085735 A 0.81511649 0.81511649 0 0 0 75.971334 84.101848 L 75.965475 84.22929 L 76.892721 84.050579 A 1.630233 1.630233 0 0 1 76.982076 84.037395 L 77.808248 83.926067 L 78.476217 83.830852 L 78.479147 83.176067 A 0.81511649 0.81511649 0 0 0 78.479147 83.174602 A 0.81511649 0.81511649 0 0 0 78.479147 83.173137 A 0.81511649 0.81511649 0 0 0 78.479147 83.171672 A 0.81511649 0.81511649 0 0 0 78.479147 83.170208 A 0.81511649 0.81511649 0 0 0 78.479147 83.168743 A 0.81511649 0.81511649 0 0 0 78.479147 83.167278 A 0.81511649 0.81511649 0 0 0 78.479147 83.165813 A 0.81511649 0.81511649 0 0 0 78.479147 83.164348 A 0.81511649 0.81511649 0 0 0 78.479147 83.162883 A 0.81511649 0.81511649 0 0 0 78.479147 83.161419 A 0.81511649 0.81511649 0 0 0 78.479147 83.159954 A 0.81511649 0.81511649 0 0 0 78.479147 83.158489 A 0.81511649 0.81511649 0 0 0 78.479147 83.157024 A 0.81511649 0.81511649 0 0 0 78.479147 83.155559 A 0.81511649 0.81511649 0 0 0 78.479147 83.154094 A 0.81511649 0.81511649 0 0 0 78.479147 83.152629 L 78.463033 82.513958 z M 78.341451 87.142864 L 78.257955 87.154583 A 1.630233 1.630233 0 0 1 78.247701 87.156048 L 77.46108 87.261516 L 76.300924 87.484173 L 76.089986 87.526653 A 0.81511649 0.81511649 0 0 0 76.14858 87.60136 L 77.138815 88.398235 A 0.81511649 0.81511649 0 0 0 78.260885 88.266399 L 78.271139 88.062786 A 1.630233 1.630233 0 0 1 78.274068 88.032024 L 78.334127 87.219036 A 1.630233 1.630233 0 0 1 78.341451 87.142864 z " />
      <path
         id="path18360"
         style="color:#000000;fill:#4472c4;stroke-linecap:square;stroke-linejoin:round;stroke-miterlimit:10;-inkscape-stroke:none;fill-opacity:1"
         d="M 88.284811 44.759074 A 0.81511649 0.81511649 0 0 0 87.709127 45.107707 L 87.146627 45.925089 A 0.81511649 0.81511649 0 0 0 87.006002 46.458293 L 87.088034 47.400187 A 0.81511649 0.81511649 0 0 0 87.089498 47.417765 L 87.177389 48.2205 L 87.246237 49.027629 A 0.81511649 0.81511649 0 0 0 87.252096 49.074504 L 87.367819 49.86259 L 87.441061 50.653605 L 87.517233 51.460734 L 87.609518 52.707316 A 0.81511649 0.81511649 0 0 0 87.627096 52.824504 L 87.632955 52.847941 L 87.632955 52.877238 L 87.63735 53.671183 L 87.599264 54.479777 L 87.486471 55.585734 A 0.81511649 0.81511649 0 0 0 87.486471 55.591594 L 87.410299 56.403117 L 87.328268 57.235148 L 87.068991 58.754191 A 0.81511649 0.81511649 0 0 0 87.068991 58.757121 L 86.92983 59.587687 L 86.562155 60.999797 A 0.81511649 0.81511649 0 0 0 86.562155 61.002727 L 86.348287 61.840617 L 85.769674 63.267375 L 85.158834 64.776164 L 84.851217 65.523235 L 84.221334 67.01591 L 83.893209 67.752727 L 83.56069 68.491008 L 83.219381 69.224895 A 0.81511649 0.81511649 0 0 0 83.213522 69.242473 L 82.891256 69.97636 A 0.81511649 0.81511649 0 0 0 82.879537 70.002727 L 82.517721 70.906535 L 82.211569 71.655071 L 81.91567 72.361125 A 0.81511649 0.81511649 0 0 0 81.892233 72.429973 L 81.44985 73.824504 L 81.174459 74.52177 A 0.81511649 0.81511649 0 0 0 81.140768 74.621379 L 80.771627 76.074504 L 80.711569 76.276653 L 81.643209 76.847942 A 1.630233 1.630233 0 0 1 81.914205 77.057414 L 82.125143 77.258098 L 82.129537 77.233196 L 82.340475 76.521282 A 0.81511649 0.81511649 0 0 0 82.347799 76.49052 L 82.706686 75.072551 L 82.974752 74.398723 A 0.81511649 0.81511649 0 0 0 82.993795 74.345989 L 83.436178 72.957317 L 83.717428 72.279094 A 0.81511649 0.81511649 0 0 0 83.718893 72.276164 L 84.027975 71.520305 A 0.81511649 0.81511649 0 0 0 84.030905 71.512981 L 84.388326 70.619426 L 84.701803 69.904582 L 85.041647 69.173625 A 0.81511649 0.81511649 0 0 0 85.047506 69.161906 L 85.381491 68.417766 A 0.81511649 0.81511649 0 0 0 85.381491 68.416301 L 85.712545 67.669231 A 0.81511649 0.81511649 0 0 0 85.718405 67.657512 L 86.355612 66.156047 A 0.81511649 0.81511649 0 0 0 86.360006 66.144328 L 86.667623 65.389934 A 0.81511649 0.81511649 0 0 0 86.667623 65.388469 L 87.279928 63.878215 L 87.879049 62.401652 A 0.81511649 0.81511649 0 0 0 87.912741 62.299113 L 88.141256 61.408488 L 88.517721 59.961223 A 0.81511649 0.81511649 0 0 0 88.530905 59.88798 L 88.675924 59.025187 L 88.851705 57.989543 L 89.121237 58.727824 A 0.81511649 0.81511649 0 0 0 89.175436 58.850871 L 89.717428 59.810344 A 0.81511649 0.81511649 0 0 0 89.814108 59.946574 L 89.903463 60.049113 L 89.963522 59.466105 L 90.042623 58.39091 L 90.036764 57.607219 A 1.630233 1.630233 0 0 1 90.036764 57.542766 L 90.060202 56.757609 L 90.060202 56.452922 L 89.896139 55.891887 L 89.695455 55.175578 L 89.528463 54.12675 L 89.405416 53.318156 A 0.81511649 0.81511649 0 0 0 89.393698 53.265422 L 89.257467 52.654582 L 89.250143 52.062785 L 89.286764 51.008097 A 0.81511649 0.81511649 0 0 0 89.286764 50.946574 L 89.256002 50.118937 L 89.238424 49.317668 L 89.23403 48.512004 A 0.81511649 0.81511649 0 0 0 89.232565 48.462199 L 89.184225 47.669718 L 89.184225 46.884562 L 89.195944 45.577922 A 0.81511649 0.81511649 0 0 0 88.284811 44.759074 z M 108.74282 60.793254 L 107.92837 60.810832 L 106.74624 60.835734 A 0.81511649 0.81511649 0 0 0 106.73891 60.835734 L 105.92592 60.860637 L 105.11587 60.878215 A 0.81511649 0.81511649 0 0 0 105.10415 60.881145 L 104.28969 60.910441 A 0.81511649 0.81511649 0 0 0 104.28237 60.910441 L 103.86049 60.92802 A 1.630233 1.630233 0 0 1 103.99966 61.601848 L 103.98794 62.555461 L 104.34975 62.539348 L 105.15688 62.510051 L 105.96694 62.489543 A 0.81511649 0.81511649 0 0 0 105.9728 62.489543 L 106.78579 62.464641 L 107.96352 62.439738 L 108.77798 62.42216 L 108.74282 60.793254 z M 100.82973 61.042277 L 100.36391 61.052531 L 100.39614 61.486125 L 100.46792 62.218547 A 1.630233 1.630233 0 0 1 100.5309 61.780559 L 100.82973 61.042277 z M 72.572896 71.882121 L 71.307271 71.89677 A 0.81511649 0.81511649 0 0 0 71.261861 71.89677 L 70.404928 71.955364 A 0.81511649 0.81511649 0 0 0 70.371236 71.956828 L 69.282857 72.076946 A 0.81511649 0.81511649 0 0 0 69.279928 72.076946 L 68.466939 72.167766 A 0.81511649 0.81511649 0 0 0 68.449361 72.170696 L 67.618795 72.282024 A 0.81511649 0.81511649 0 0 0 67.586568 72.287883 L 66.587545 72.465129 L 65.789205 72.594035 A 0.81511649 0.81511649 0 0 0 65.783345 72.5955 L 64.976217 72.733196 A 0.81511649 0.81511649 0 0 0 64.952779 72.736125 L 64.147115 72.898723 L 62.606099 73.20341 A 0.81511649 0.81511649 0 0 0 62.543111 73.219524 L 61.776998 73.433391 L 61.00942 73.601848 L 60.21108 73.770305 L 59.414205 73.937297 L 59.749654 75.533977 L 60.549459 75.364055 L 61.347799 75.195598 A 0.81511649 0.81511649 0 0 0 61.352193 75.195598 L 62.146138 75.021282 A 0.81511649 0.81511649 0 0 0 62.195943 75.009563 L 62.954732 74.797161 L 64.464986 74.498332 A 0.81511649 0.81511649 0 0 0 64.466451 74.496868 L 65.261861 74.338664 L 66.052877 74.203899 L 66.855611 74.072063 A 0.81511649 0.81511649 0 0 0 66.86733 74.070598 L 67.85317 73.894817 L 68.658834 73.787883 L 69.461568 73.695598 L 70.529439 73.579875 L 71.348287 73.525676 L 72.54067 73.513957 L 74.102193 73.673625 L 75.310689 73.972453 L 76.271627 74.38261 L 77.064107 74.912883 L 77.414205 75.239543 L 77.568014 75.255657 A 1.630233 1.630233 0 0 1 77.783346 75.293743 L 79.129537 75.616008 A 1.630233 1.630233 0 0 1 79.378561 75.69511 L 79.911764 75.919231 L 79.75649 75.594036 A 0.81511649 0.81511649 0 0 0 79.687643 75.476848 L 79.029928 74.540813 A 0.81511649 0.81511649 0 0 0 78.9186 74.413371 L 78.129049 73.67509 A 0.81511649 0.81511649 0 0 0 78.025045 73.593059 L 77.113912 72.983684 A 0.81511649 0.81511649 0 0 0 76.980611 72.911907 L 75.889303 72.447551 A 0.81511649 0.81511649 0 0 0 75.766256 72.406535 L 74.437643 72.07841 A 0.81511649 0.81511649 0 0 0 74.326314 72.057903 L 72.663717 71.886516 A 0.81511649 0.81511649 0 0 0 72.572896 71.882121 z M 79.344869 79.263469 L 79.346334 79.270793 L 79.358053 79.270793 L 79.344869 79.263469 z M 79.585104 82.559368 L 79.548483 82.869915 A 0.81511649 0.81511649 0 0 0 79.545553 82.91386 L 79.497213 83.687297 L 79.841451 83.638958 A 1.630233 1.630233 0 0 1 79.99233 83.622844 L 80.852194 83.581829 A 1.630233 1.630233 0 0 1 80.88442 83.580364 L 81.489401 83.562786 L 81.474752 82.972454 A 0.81511649 0.81511649 0 0 0 81.470358 82.91679 L 81.465963 82.871379 L 80.414205 82.628215 L 79.699361 82.568157 L 79.585104 82.559368 z M 81.583151 86.822063 L 80.992819 86.839641 L 80.22524 86.876262 L 79.177877 87.024212 L 79.150045 87.238079 A 0.81511649 0.81511649 0 0 0 79.147115 87.279094 L 79.085592 88.092083 A 0.81511649 0.81511649 0 0 0 79.085592 88.108196 L 79.050436 88.758587 L 80.263326 88.525676 A 1.630233 1.630233 0 0 1 80.343893 88.512493 L 81.16567 88.395305 L 81.577291 88.333782 L 81.580221 87.79179 L 81.58608 86.961223 A 0.81511649 0.81511649 0 0 0 81.58608 86.959758 A 0.81511649 0.81511649 0 0 0 81.58608 86.958294 A 0.81511649 0.81511649 0 0 0 81.58608 86.956829 A 0.81511649 0.81511649 0 0 0 81.58608 86.955364 A 0.81511649 0.81511649 0 0 0 81.58608 86.953899 A 0.81511649 0.81511649 0 0 0 81.58608 86.952434 A 0.81511649 0.81511649 0 0 0 81.58608 86.950969 A 0.81511649 0.81511649 0 0 0 81.58608 86.949505 A 0.81511649 0.81511649 0 0 0 81.58608 86.94804 A 0.81511649 0.81511649 0 0 0 81.58608 86.946575 A 0.81511649 0.81511649 0 0 0 81.58608 86.94511 A 0.81511649 0.81511649 0 0 0 81.58608 86.943645 A 0.81511649 0.81511649 0 0 0 81.58608 86.94218 A 0.81511649 0.81511649 0 0 0 81.58608 86.940716 A 0.81511649 0.81511649 0 0 0 81.58608 86.939251 A 0.81511649 0.81511649 0 0 0 81.58608 86.937786 L 81.583151 86.822063 z M 81.561178 91.63261 L 80.840475 91.735149 L 79.683248 91.956341 L 80.234029 92.403118 A 0.81511649 0.81511649 0 0 0 81.561178 91.77177 L 81.561178 91.63261 z " />
      <path
         id="path18380"
         style="color:#000000;fill:#4472c4;stroke-linecap:square;stroke-linejoin:round;stroke-miterlimit:10;-inkscape-stroke:none;fill-opacity:1"
         d="M 91.861959 48.58964 A 0.81511649 0.81511649 0 0 0 90.944967 49.023234 L 90.545065 49.836222 A 0.81511649 0.81511649 0 0 0 90.464498 50.252238 L 90.531881 51.213176 A 0.81511649 0.81511649 0 0 0 90.537741 51.267375 L 90.646139 52.062785 L 90.720846 52.853801 L 90.791159 53.663859 L 90.857077 54.473918 A 0.81511649 0.81511649 0 0 0 90.862936 54.531047 L 90.902487 54.784465 L 90.902487 54.835734 L 90.87319 55.938762 A 0.81511649 0.81511649 0 0 0 90.87319 55.965129 L 90.877584 56.767863 L 90.851217 57.567668 A 0.81511649 0.81511649 0 0 0 90.851217 57.599894 L 90.857077 58.417277 L 90.77358 59.539348 L 90.693014 60.339152 L 90.609518 61.168254 L 90.329733 62.740031 A 0.81511649 0.81511649 0 0 0 90.328268 62.744426 L 90.183248 63.573527 L 89.811178 65.038371 A 0.81511649 0.81511649 0 0 0 89.808248 65.042766 L 89.600241 65.874797 L 89.067037 67.200481 A 0.81511649 0.81511649 0 0 0 89.062643 67.20927 L 88.769674 67.965129 L 87.855612 70.222453 L 87.549459 70.970989 L 86.918112 72.460735 L 86.585592 73.199016 L 86.257467 73.929973 A 0.81511649 0.81511649 0 0 0 86.251608 73.943157 L 85.847311 74.886516 A 0.81511649 0.81511649 0 0 0 85.845846 74.892375 L 85.530905 75.64677 A 0.81511649 0.81511649 0 0 0 85.52944 75.652629 L 85.237936 76.363079 A 0.81511649 0.81511649 0 0 0 85.215963 76.424602 L 84.758932 77.860149 L 84.512838 78.580852 A 0.81511649 0.81511649 0 0 0 84.49233 78.658489 L 84.152487 80.111614 L 84.063131 80.400188 L 84.950826 80.955364 A 1.630233 1.630233 0 0 1 85.192526 81.138469 L 85.473776 81.396282 L 85.498678 81.267376 L 85.71694 80.57011 A 0.81511649 0.81511649 0 0 0 85.733053 80.511516 L 86.069967 79.068645 L 86.307272 78.377239 A 0.81511649 0.81511649 0 0 0 86.310201 78.359661 L 86.759909 76.949016 L 87.036764 76.270793 L 87.347311 75.525188 L 87.748678 74.592082 L 88.073873 73.86552 L 88.407858 73.121379 A 0.81511649 0.81511649 0 0 0 88.413717 73.105266 L 89.050924 71.600871 A 0.81511649 0.81511649 0 0 0 89.055319 71.593547 L 89.362936 70.837688 A 0.81511649 0.81511649 0 0 0 89.365866 70.836223 L 90.281393 68.571574 A 0.81511649 0.81511649 0 0 0 90.287252 68.562785 L 90.580221 67.803996 L 91.132467 66.431438 A 0.81511649 0.81511649 0 0 0 91.167623 66.325969 L 91.388815 65.441203 L 91.771139 63.947063 A 0.81511649 0.81511649 0 0 0 91.785788 63.884074 L 91.933737 63.025676 L 92.173971 61.680949 L 92.535788 62.630168 A 0.81511649 0.81511649 0 0 0 92.588522 62.744426 L 93.124655 63.68925 A 0.81511649 0.81511649 0 0 0 93.224264 63.829875 L 93.296041 63.910442 L 93.30776 63.717082 A 1.630233 1.630233 0 0 1 93.31069 63.700969 L 93.386862 62.624309 L 93.420553 61.831828 L 93.423483 61.045207 A 1.630233 1.630233 0 0 1 93.423483 61.01884 L 93.439596 60.202922 A 1.630233 1.630233 0 0 1 93.439596 60.186809 L 93.351706 59.814738 A 0.81511649 0.81511649 0 0 0 93.350241 59.808879 L 93.16567 59.072062 L 92.966452 57.976359 L 92.822897 57.178019 L 92.693991 56.428019 L 92.607565 55.163859 A 0.81511649 0.81511649 0 0 0 92.600241 55.095012 L 92.532858 54.665812 L 92.532858 54.015422 A 0.81511649 0.81511649 0 0 0 92.531393 53.968547 L 92.484518 53.178996 L 92.488913 52.386515 L 92.490377 51.570597 A 0.81511649 0.81511649 0 0 0 92.490377 51.569133 A 0.81511649 0.81511649 0 0 0 92.490377 51.567668 L 92.490377 49.382121 A 0.81511649 0.81511649 0 0 0 91.861959 48.58964 z M 112.24966 64.628215 L 111.4352 64.656047 L 109.8854 64.707317 L 109.0768 64.721965 A 0.81511649 0.81511649 0 0 0 109.05923 64.721965 L 108.24624 64.754192 L 107.43178 64.783488 A 0.81511649 0.81511649 0 0 0 107.42885 64.784953 L 107.10952 64.796672 A 1.630233 1.630233 0 0 1 107.62661 65.829387 L 107.65737 66.408 L 108.30483 66.384563 A 0.81511649 0.81511649 0 0 0 108.3063 66.383098 L 109.11489 66.350871 L 109.92202 66.337688 A 0.81511649 0.81511649 0 0 0 109.93374 66.336223 L 111.49087 66.284953 L 112.30532 66.257121 L 112.24966 64.628215 z M 104.78335 64.902141 L 103.97329 64.919719 L 103.96303 65.608195 A 1.630233 1.630233 0 0 0 103.96303 65.60966 A 1.630233 1.630233 0 0 0 103.96303 65.611125 A 1.630233 1.630233 0 0 0 103.96303 65.61259 A 1.630233 1.630233 0 0 0 103.96303 65.614055 A 1.630233 1.630233 0 0 0 103.96303 65.61552 L 103.95864 65.767863 L 104.05239 66.435832 A 1.630233 1.630233 0 0 1 104.06264 66.536906 L 104.06411 66.54716 L 104.35854 66.541301 L 104.3688 65.885051 A 1.630233 1.630233 0 0 1 104.78335 64.902141 z M 75.703268 75.889934 L 74.403951 75.910442 A 0.81511649 0.81511649 0 0 0 74.390768 75.910442 L 73.529439 75.939739 A 0.81511649 0.81511649 0 0 0 73.447408 75.947063 L 72.320943 76.099407 L 71.513814 76.203411 L 70.681783 76.304485 A 0.81511649 0.81511649 0 0 0 70.630514 76.311809 L 69.561178 76.513957 L 68.764303 76.666301 L 67.970357 76.801067 A 0.81511649 0.81511649 0 0 0 67.968892 76.801067 L 67.154439 76.941692 A 0.81511649 0.81511649 0 0 0 67.088521 76.954875 L 66.287252 77.161418 L 65.50649 77.33427 A 0.81511649 0.81511649 0 0 0 65.456685 77.345989 L 64.692037 77.56425 L 63.921529 77.734172 L 63.127584 77.905559 L 62.330709 78.078411 L 62.673482 79.672161 L 63.470357 79.499309 L 64.267232 79.327922 A 0.81511649 0.81511649 0 0 0 64.271627 79.326458 L 65.067037 79.152141 A 0.81511649 0.81511649 0 0 0 65.115377 79.138958 L 65.88149 78.919231 L 66.651998 78.749309 A 0.81511649 0.81511649 0 0 0 66.67983 78.74345 L 67.463521 78.541301 L 68.244283 78.408 L 69.047017 78.27177 A 0.81511649 0.81511649 0 0 0 69.060201 78.267375 L 69.862935 78.115032 L 70.905904 77.920207 L 71.713033 77.820598 A 0.81511649 0.81511649 0 0 0 71.718893 77.820598 L 72.531881 77.715129 A 0.81511649 0.81511649 0 0 0 72.53774 77.715129 L 73.624654 77.565715 L 74.437643 77.540813 L 75.681295 77.52177 L 77.266256 77.682903 L 78.496725 77.975872 L 79.47817 78.388957 L 80.291158 78.887004 L 80.824361 79.39384 A 1.630233 1.630233 0 0 1 81.032369 79.426067 L 82.394674 79.741008 A 1.630233 1.630233 0 0 1 82.601217 79.802532 L 83.210592 80.032512 L 82.974752 79.550579 A 0.81511649 0.81511649 0 0 0 82.90444 79.431926 L 82.235006 78.506145 A 0.81511649 0.81511649 0 0 0 82.135397 78.391887 L 81.351705 77.646282 A 0.81511649 0.81511649 0 0 0 81.21694 77.542278 L 80.277975 76.966594 A 0.81511649 0.81511649 0 0 0 80.166647 76.909465 L 79.065084 76.446575 A 0.81511649 0.81511649 0 0 0 78.939108 76.405559 L 77.591451 76.086223 A 0.81511649 0.81511649 0 0 0 77.485982 76.065715 L 75.798482 75.894329 A 0.81511649 0.81511649 0 0 0 75.703268 75.889934 z M 82.588033 83.322551 L 82.627584 83.511516 L 82.636373 83.561321 L 83.011373 83.586223 L 82.588033 83.322551 z M 82.897115 86.846966 L 82.894186 86.863079 A 0.81511649 0.81511649 0 0 0 82.882467 86.950969 L 82.793112 88.033489 A 0.81511649 0.81511649 0 0 0 82.791647 88.046673 L 82.784322 88.155071 L 83.256002 88.086223 A 1.630233 1.630233 0 0 1 83.398092 88.07304 L 84.25649 88.023235 A 1.630233 1.630233 0 0 1 84.288717 88.02177 L 84.701803 88.007122 L 84.690084 87.623333 A 0.81511649 0.81511649 0 0 0 84.690084 87.621868 A 0.81511649 0.81511649 0 0 0 84.690084 87.620403 A 0.81511649 0.81511649 0 0 0 84.690084 87.618938 A 0.81511649 0.81511649 0 0 0 84.690084 87.617473 A 0.81511649 0.81511649 0 0 0 84.690084 87.616009 A 0.81511649 0.81511649 0 0 0 84.690084 87.614544 A 0.81511649 0.81511649 0 0 0 84.690084 87.613079 A 0.81511649 0.81511649 0 0 0 84.690084 87.611614 A 0.81511649 0.81511649 0 0 0 84.690084 87.610149 A 0.81511649 0.81511649 0 0 0 84.690084 87.608684 L 84.668112 87.106243 L 83.7936 86.914348 L 83.058248 86.857219 L 82.897115 86.846966 z M 84.739889 91.267864 L 84.422018 91.279583 L 83.65444 91.322063 L 82.488424 91.49345 L 82.43569 92.079388 L 82.328756 92.880657 A 0.81511649 0.81511649 0 0 0 82.322897 92.952434 L 82.303854 93.422649 L 82.343404 93.41386 A 1.630233 1.630233 0 0 1 82.365377 93.409466 L 83.735006 93.13847 A 1.630233 1.630233 0 0 1 83.808248 93.126751 L 84.63442 93.003704 L 84.72524 92.989056 A 0.81511649 0.81511649 0 0 0 84.72524 92.987591 L 84.72817 92.176067 L 84.738424 91.361614 L 84.739889 91.267864 z M 84.561178 96.309856 L 84.329733 96.345013 L 83.402487 96.528118 A 0.81511649 0.81511649 0 0 0 84.561178 96.309856 z " />
      <path
         id="path18400"
         style="color:#000000;fill:#4472c4;stroke-linecap:square;stroke-linejoin:round;stroke-miterlimit:10;-inkscape-stroke:none;fill-opacity:1"
         d="M 95.005514 52.503703 A 0.81511649 0.81511649 0 0 0 94.787252 52.550578 A 0.81511649 0.81511649 0 0 0 94.278952 53.107219 L 94.065084 53.920207 A 0.81511649 0.81511649 0 0 0 94.038717 54.179484 L 94.117819 55.367473 A 0.81511649 0.81511649 0 0 0 94.117819 55.385051 L 94.188131 56.193644 L 94.249655 57.003703 A 0.81511649 0.81511649 0 0 0 94.258444 57.060832 L 94.270163 57.145793 L 94.267233 57.548625 L 94.258444 58.361613 A 0.81511649 0.81511649 0 0 0 94.259909 58.409953 L 94.299459 59.208293 L 94.255514 60.201457 A 0.81511649 0.81511649 0 0 0 94.255514 60.2205 L 94.237936 61.034953 A 0.81511649 0.81511649 0 0 0 94.237936 61.048137 L 94.236471 61.850871 L 94.201315 62.669719 L 94.122213 63.759563 A 0.81511649 0.81511649 0 0 0 94.122213 63.766887 L 94.072409 64.562297 L 93.983053 65.370891 L 93.693014 66.929485 A 0.81511649 0.81511649 0 0 0 93.691549 66.935344 L 93.545065 67.757121 L 93.148092 69.248332 A 0.81511649 0.81511649 0 0 0 93.146627 69.254192 L 92.93276 70.086223 L 92.485983 71.228801 L 91.888327 72.74052 L 91.588034 73.494914 L 90.665182 75.750774 L 90.348776 76.496379 L 90.035299 77.236125 L 89.708639 77.962688 A 0.81511649 0.81511649 0 0 0 89.701315 77.983196 L 89.291159 78.964641 L 88.963034 79.701458 A 0.81511649 0.81511649 0 0 0 88.957174 79.717571 L 88.658346 80.426555 A 0.81511649 0.81511649 0 0 0 88.631979 80.496868 L 88.163229 81.963176 L 87.920065 82.683879 A 0.81511649 0.81511649 0 0 0 87.899557 82.752727 L 87.539205 84.255657 L 87.438131 84.6497 L 88.33608 85.193157 A 1.630233 1.630233 0 0 1 88.588034 85.380657 L 88.878073 85.644329 L 88.933737 85.380657 L 89.119772 84.654094 A 0.81511649 0.81511649 0 0 0 89.121237 84.642376 L 89.477194 83.170208 L 89.711569 82.475872 A 0.81511649 0.81511649 0 0 0 89.714498 82.464153 L 90.174459 81.027141 L 90.457174 80.357708 L 90.785299 79.619426 A 0.81511649 0.81511649 0 0 0 90.791159 79.601848 L 91.201315 78.618938 L 91.525045 77.89384 A 0.81511649 0.81511649 0 0 0 91.53237 77.882122 L 91.850241 77.132122 L 92.168112 76.380657 A 0.81511649 0.81511649 0 0 0 92.172506 76.370403 L 93.099752 74.107219 A 0.81511649 0.81511649 0 0 0 93.102682 74.10136 L 93.40444 73.344035 A 0.81511649 0.81511649 0 0 0 93.40444 73.342571 A 0.81511649 0.81511649 0 0 0 93.40444 73.341106 L 94.005026 71.826457 A 0.81511649 0.81511649 0 0 0 94.006491 71.822063 L 94.470846 70.63261 A 0.81511649 0.81511649 0 0 0 94.500143 70.53886 L 94.724264 69.664348 L 95.128561 68.14384 A 0.81511649 0.81511649 0 0 0 95.14321 68.077922 L 95.295553 67.223918 L 95.589987 65.638957 A 0.81511649 0.81511649 0 0 0 95.600241 65.580363 L 95.61196 65.469035 L 96.051413 66.617473 A 0.81511649 0.81511649 0 0 0 96.093893 66.714153 L 96.605124 67.661906 A 0.81511649 0.81511649 0 0 0 96.710592 67.812785 L 96.777975 67.888957 L 96.77944 67.85966 A 1.630233 1.630233 0 0 1 96.785299 67.767375 L 96.903952 66.664348 L 96.914206 65.89384 A 1.630233 1.630233 0 0 1 96.914206 65.882121 L 96.930319 65.066203 A 1.630233 1.630233 0 0 1 96.930319 65.026652 L 96.965475 64.244426 L 96.965475 64.213664 L 96.868795 63.799113 A 0.81511649 0.81511649 0 0 0 96.861471 63.768352 L 96.668112 63.068156 L 96.523092 62.012004 A 0.81511649 0.81511649 0 0 0 96.523092 62.010539 A 0.81511649 0.81511649 0 0 0 96.523092 62.009074 A 0.81511649 0.81511649 0 0 0 96.523092 62.007609 L 96.40737 61.199016 A 0.81511649 0.81511649 0 0 0 96.398581 61.144816 L 96.243307 60.406535 L 96.146627 59.304973 A 0.81511649 0.81511649 0 0 0 96.143698 59.294719 L 96.061667 58.490519 L 95.995749 57.683391 A 0.81511649 0.81511649 0 0 0 95.989889 57.630656 L 95.899069 57.034465 L 95.909323 55.931437 A 0.81511649 0.81511649 0 0 0 95.909323 55.929973 A 0.81511649 0.81511649 0 0 0 95.909323 55.928508 A 0.81511649 0.81511649 0 0 0 95.909323 55.927043 A 0.81511649 0.81511649 0 0 0 95.909323 55.925578 A 0.81511649 0.81511649 0 0 0 95.909323 55.924113 A 0.81511649 0.81511649 0 0 0 95.909323 55.922648 A 0.81511649 0.81511649 0 0 0 95.909323 55.921183 A 0.81511649 0.81511649 0 0 0 95.909323 55.919719 A 0.81511649 0.81511649 0 0 0 95.909323 55.918254 A 0.81511649 0.81511649 0 0 0 95.909323 55.916789 A 0.81511649 0.81511649 0 0 0 95.909323 55.915324 A 0.81511649 0.81511649 0 0 0 95.909323 55.913859 A 0.81511649 0.81511649 0 0 0 95.909323 55.912394 A 0.81511649 0.81511649 0 0 0 95.909323 55.91093 A 0.81511649 0.81511649 0 0 0 95.909323 55.909465 L 95.89321 55.095012 A 0.81511649 0.81511649 0 0 0 95.89321 55.093547 A 0.81511649 0.81511649 0 0 0 95.89321 55.092082 L 95.874167 54.284953 L 95.880026 53.319621 A 0.81511649 0.81511649 0 0 0 95.005514 52.503703 z M 115.69497 68.646281 L 114.88051 68.674113 L 113.92251 68.704875 L 113.11098 68.728313 L 112.30092 68.744426 A 0.81511649 0.81511649 0 0 0 112.29507 68.744426 L 111.47915 68.766399 A 0.81511649 0.81511649 0 0 0 111.47475 68.766399 L 110.6603 68.792766 A 0.81511649 0.81511649 0 0 0 110.64858 68.792766 L 109.83559 68.829387 L 109.02407 68.861614 A 0.81511649 0.81511649 0 0 0 109.01528 68.861614 L 108.24331 68.899699 L 107.86684 68.908489 L 107.89614 69.239543 L 107.97085 70.017375 L 108.03676 70.534465 L 108.28872 70.528606 A 0.81511649 0.81511649 0 0 0 108.31216 70.528606 L 109.09145 70.49052 L 109.90151 70.459758 A 0.81511649 0.81511649 0 0 0 109.90883 70.459758 L 110.71889 70.421672 L 111.52602 70.39677 L 112.33608 70.373332 L 113.14614 70.357219 A 0.81511649 0.81511649 0 0 0 113.152 70.357219 L 113.96938 70.335246 A 0.81511649 0.81511649 0 0 0 113.97231 70.335246 L 114.93618 70.30302 L 115.75063 70.278117 L 115.69497 68.646281 z M 104.25161 68.940715 L 104.32046 69.35966 L 104.37612 69.633586 L 104.37319 69.435832 A 1.630233 1.630233 0 0 1 104.37319 69.390422 L 104.38051 68.94511 L 104.25161 68.940715 z M 78.936178 80.058879 L 77.6061 80.088176 A 0.81511649 0.81511649 0 0 0 77.589986 80.088176 L 76.730123 80.123333 A 0.81511649 0.81511649 0 0 0 76.652486 80.130657 L 75.470357 80.293254 L 74.664693 80.404583 L 73.834127 80.511516 A 0.81511649 0.81511649 0 0 0 73.791646 80.51884 L 72.649068 80.729778 A 0.81511649 0.81511649 0 0 0 72.63735 80.732708 L 71.847799 80.890911 L 71.052389 81.028606 A 0.81511649 0.81511649 0 0 0 71.046529 81.031536 L 70.236471 81.176555 A 0.81511649 0.81511649 0 0 0 70.177877 81.189739 L 69.293111 81.41386 L 68.512349 81.586711 A 0.81511649 0.81511649 0 0 0 68.456685 81.599895 L 67.694967 81.824016 L 66.925924 81.998333 L 66.133443 82.172649 L 65.336568 82.34843 L 65.688131 83.939251 L 66.485006 83.763469 L 67.278951 83.590618 A 0.81511649 0.81511649 0 0 0 67.28481 83.587688 L 68.080221 83.407512 A 0.81511649 0.81511649 0 0 0 68.12856 83.394329 L 68.888814 83.171672 L 69.657857 83.003215 A 0.81511649 0.81511649 0 0 0 69.684224 82.997356 L 70.552877 82.7747 L 71.333639 82.634075 L 72.136373 82.496379 A 0.81511649 0.81511649 0 0 0 72.156881 82.491985 L 72.950826 82.332317 L 74.067037 82.124309 L 74.878561 82.01884 A 0.81511649 0.81511649 0 0 0 74.88442 82.01884 L 75.693014 81.907512 L 76.835592 81.749309 L 77.64858 81.717083 L 78.930318 81.689251 L 79.765279 81.755169 L 80.538717 81.822551 L 81.789694 82.111126 L 82.787252 82.486126 L 83.594381 82.990032 L 84.281393 83.622844 L 84.335592 83.697551 A 1.630233 1.630233 0 0 1 84.385397 83.704876 L 85.763815 84.009563 A 1.630233 1.630233 0 0 1 85.968893 84.069622 L 86.622213 84.308391 L 86.294088 83.637493 A 0.81511649 0.81511649 0 0 0 86.220846 83.511516 L 85.548483 82.595989 A 0.81511649 0.81511649 0 0 0 85.443014 82.477336 L 84.64028 81.739055 A 0.81511649 0.81511649 0 0 0 84.518698 81.64677 L 83.581197 81.060833 A 0.81511649 0.81511649 0 0 0 83.437643 80.99052 L 82.314108 80.565715 A 0.81511649 0.81511649 0 0 0 82.208639 80.534954 L 80.849264 80.220012 A 0.81511649 0.81511649 0 0 0 80.735006 80.200969 L 79.900045 80.132122 A 0.81511649 0.81511649 0 0 0 79.897115 80.130657 L 79.018209 80.061809 A 0.81511649 0.81511649 0 0 0 78.936178 80.058879 z M 85.938131 87.554485 L 86.017233 87.985149 L 86.64858 88.023235 L 86.51528 87.901653 L 85.938131 87.554485 z M 86.294088 91.267864 L 86.197408 92.041302 A 0.81511649 0.81511649 0 0 0 86.195944 92.05302 L 86.115377 92.778118 L 86.778951 92.677044 A 1.630233 1.630233 0 0 1 86.918112 92.66386 L 87.77358 92.609661 A 1.630233 1.630233 0 0 1 87.807272 92.606731 L 88.018209 92.597942 L 88.018209 92.417766 A 0.81511649 0.81511649 0 0 0 88.018209 92.416302 A 0.81511649 0.81511649 0 0 0 88.018209 92.414837 A 0.81511649 0.81511649 0 0 0 88.018209 92.413372 A 0.81511649 0.81511649 0 0 0 88.018209 92.411907 A 0.81511649 0.81511649 0 0 0 88.018209 92.410442 A 0.81511649 0.81511649 0 0 0 88.018209 92.408977 A 0.81511649 0.81511649 0 0 0 88.018209 92.407513 A 0.81511649 0.81511649 0 0 0 88.018209 92.406048 A 0.81511649 0.81511649 0 0 0 88.018209 92.404583 A 0.81511649 0.81511649 0 0 0 88.018209 92.403118 A 0.81511649 0.81511649 0 0 0 88.018209 92.401653 A 0.81511649 0.81511649 0 0 0 88.018209 92.400188 A 0.81511649 0.81511649 0 0 0 88.018209 92.398723 A 0.81511649 0.81511649 0 0 0 88.018209 92.397259 A 0.81511649 0.81511649 0 0 0 88.018209 92.395794 L 87.997702 91.581341 A 0.81511649 0.81511649 0 0 0 87.997702 91.579876 A 0.81511649 0.81511649 0 0 0 87.997702 91.578411 A 0.81511649 0.81511649 0 0 0 87.997702 91.576946 A 0.81511649 0.81511649 0 0 0 87.997702 91.575481 A 0.81511649 0.81511649 0 0 0 87.997702 91.574016 A 0.81511649 0.81511649 0 0 0 87.997702 91.572552 A 0.81511649 0.81511649 0 0 0 87.997702 91.571087 A 0.81511649 0.81511649 0 0 0 87.997702 91.569622 A 0.81511649 0.81511649 0 0 0 87.997702 91.568157 A 0.81511649 0.81511649 0 0 0 87.997702 91.566692 A 0.81511649 0.81511649 0 0 0 87.997702 91.565227 A 0.81511649 0.81511649 0 0 0 87.997702 91.563763 A 0.81511649 0.81511649 0 0 0 87.997702 91.562298 A 0.81511649 0.81511649 0 0 0 87.997702 91.560833 L 87.993307 91.481731 L 87.285787 91.333782 L 86.521139 91.281048 L 86.294088 91.267864 z M 88.022604 95.860149 L 87.965475 95.863079 L 87.194967 95.911419 L 85.932272 96.101849 L 85.801901 96.122356 A 0.81511649 0.81511649 0 0 0 85.801901 96.126751 L 85.722799 96.945599 A 0.81511649 0.81511649 0 0 0 85.719869 96.966106 L 85.614401 98.445599 L 85.558737 99.260052 A 0.81511649 0.81511649 0 0 0 85.766744 99.865032 L 86.500631 100.67363 A 0.81511649 0.81511649 0 0 0 87.9186 100.158 L 87.953756 99.255657 A 0.81511649 0.81511649 0 0 0 87.953756 99.254192 A 0.81511649 0.81511649 0 0 0 87.953756 99.252728 A 0.81511649 0.81511649 0 0 0 87.953756 99.251263 A 0.81511649 0.81511649 0 0 0 87.953756 99.249798 A 0.81511649 0.81511649 0 0 0 87.953756 99.248333 A 0.81511649 0.81511649 0 0 0 87.953756 99.246868 A 0.81511649 0.81511649 0 0 0 87.953756 99.245403 A 0.81511649 0.81511649 0 0 0 87.953756 99.243938 A 0.81511649 0.81511649 0 0 0 87.953756 99.242474 A 0.81511649 0.81511649 0 0 0 87.953756 99.241009 A 0.81511649 0.81511649 0 0 0 87.953756 99.239544 L 87.971334 98.425091 A 0.81511649 0.81511649 0 0 0 87.971334 98.423626 A 0.81511649 0.81511649 0 0 0 87.971334 98.422161 A 0.81511649 0.81511649 0 0 0 87.971334 98.420696 A 0.81511649 0.81511649 0 0 0 87.971334 98.419231 L 87.980123 97.616497 L 88.013815 96.813763 A 0.81511649 0.81511649 0 0 0 88.01528 96.784466 L 88.021139 95.970013 L 88.022604 95.860149 z " />
      <path
         id="path18420"
         style="color:#000000;fill:#4472c4;stroke-linecap:square;stroke-linejoin:round;stroke-miterlimit:10;-inkscape-stroke:none;fill-opacity:1"
         d="M 98.601706 56.56425 A 0.81511649 0.81511649 0 0 0 97.759421 57.279094 L 97.662741 58.092082 A 0.81511649 0.81511649 0 0 0 97.656881 58.241496 L 97.721335 59.24052 A 0.81511649 0.81511649 0 0 0 97.721335 59.249309 L 97.781393 60.060832 A 0.81511649 0.81511649 0 0 0 97.787253 60.119426 L 97.809225 60.26591 L 97.815085 60.752238 L 97.804831 61.557902 A 0.81511649 0.81511649 0 0 0 97.804831 61.560832 L 97.798971 62.37382 L 97.785788 63.199992 A 0.81511649 0.81511649 0 0 0 97.785788 63.205852 L 97.779928 64.263469 L 97.744772 65.063274 A 0.81511649 0.81511649 0 0 0 97.744772 65.082317 L 97.728659 65.898235 A 0.81511649 0.81511649 0 0 0 97.728659 65.904094 L 97.718405 66.711223 L 97.595358 67.855266 A 0.81511649 0.81511649 0 0 0 97.590963 67.900676 L 97.549948 68.707805 L 97.491354 69.513469 L 97.353659 70.291301 A 0.81511649 0.81511649 0 0 0 97.350729 70.291301 L 97.208639 71.0955 L 97.06069 71.918742 L 96.653463 73.43925 A 0.81511649 0.81511649 0 0 0 96.651999 73.44511 L 96.439596 74.275676 L 95.966452 75.482707 L 95.667624 76.238567 A 0.81511649 0.81511649 0 0 0 95.666159 76.240032 L 95.37319 76.994426 L 95.068502 77.747356 L 94.763815 78.500286 L 94.148581 80.003215 L 93.836569 80.750286 L 93.520163 81.490032 L 93.194967 82.218059 A 0.81511649 0.81511649 0 0 0 93.187643 82.235637 L 92.761374 83.253704 L 92.433248 83.99052 A 0.81511649 0.81511649 0 0 0 92.425924 84.008098 L 92.131491 84.718547 A 0.81511649 0.81511649 0 0 0 92.105123 84.783001 L 91.630514 86.272747 L 91.38442 86.99638 A 0.81511649 0.81511649 0 0 0 91.365377 87.068157 L 90.996237 88.603313 L 90.890768 89.013469 L 91.832663 89.568645 A 1.630233 1.630233 0 0 1 92.081686 89.750286 L 92.336569 89.974407 L 92.386373 89.734173 L 92.576803 89.006145 A 0.81511649 0.81511649 0 0 0 92.579733 88.990032 L 92.941549 87.484173 L 93.175924 86.791301 A 0.81511649 0.81511649 0 0 0 93.181784 86.775188 L 93.649069 85.311809 L 93.925924 84.64384 L 94.254049 83.908489 A 0.81511649 0.81511649 0 0 0 94.261374 83.892376 L 94.687643 82.874309 L 95.011374 82.147747 A 0.81511649 0.81511649 0 0 0 95.017233 82.134563 L 95.336569 81.386028 A 0.81511649 0.81511649 0 0 0 95.338034 81.383098 L 95.652975 80.633098 A 0.81511649 0.81511649 0 0 0 95.655905 80.624309 L 96.274069 79.116985 A 0.81511649 0.81511649 0 0 0 96.275534 79.11259 L 96.580221 78.359661 A 0.81511649 0.81511649 0 0 0 96.580221 78.358196 A 0.81511649 0.81511649 0 0 0 96.580221 78.356731 L 96.886374 77.599407 A 0.81511649 0.81511649 0 0 0 96.889303 77.592082 L 97.185202 76.836223 L 97.482565 76.080364 A 0.81511649 0.81511649 0 0 0 97.48403 76.075969 L 97.974753 74.822063 A 0.81511649 0.81511649 0 0 0 98.005514 74.728313 L 98.2311 73.855266 L 98.642721 72.306926 A 0.81511649 0.81511649 0 0 0 98.658835 72.242473 L 98.812643 71.384075 A 0.81511649 0.81511649 0 0 0 98.814108 71.38261 L 98.957663 70.57841 L 99.104147 69.759563 A 0.81511649 0.81511649 0 0 0 99.115866 69.676067 L 99.134909 69.412395 L 99.580221 70.716106 A 0.81511649 0.81511649 0 0 0 99.64321 70.856731 L 100.17641 71.792766 A 0.81511649 0.81511649 0 0 0 100.2438 71.89384 L 100.48403 72.197063 L 100.49721 71.991985 A 1.630233 1.630233 0 0 1 100.50014 71.968547 L 100.59536 70.777629 L 100.63198 69.989543 L 100.64223 69.198528 A 1.630233 1.630233 0 0 1 100.64223 69.186809 L 100.65102 68.773723 L 100.42837 67.872844 L 100.25551 67.162395 L 100.09585 66.063762 L 99.980124 65.259563 L 99.874655 64.49052 L 99.745749 63.17216 A 0.81511649 0.81511649 0 0 0 99.745749 63.170695 A 0.81511649 0.81511649 0 0 0 99.745749 63.169231 L 99.662253 62.359172 L 99.584616 61.556438 L 99.526022 60.752238 A 0.81511649 0.81511649 0 0 0 99.520163 60.695109 L 99.435202 60.12675 L 99.433737 59.923137 A 0.81511649 0.81511649 0 0 0 99.433737 59.921672 A 0.81511649 0.81511649 0 0 0 99.433737 59.920207 A 0.81511649 0.81511649 0 0 0 99.433737 59.918742 A 0.81511649 0.81511649 0 0 0 99.433737 59.917277 L 99.420553 59.113078 L 99.422018 58.305949 A 0.81511649 0.81511649 0 0 0 99.422018 58.269328 L 99.382467 57.343547 A 0.81511649 0.81511649 0 0 0 98.601706 56.56425 z M 119.62075 72.769817 L 118.8063 72.781535 L 117.69155 72.797649 A 0.81511649 0.81511649 0 0 0 117.66958 72.797649 L 116.85512 72.829875 A 0.81511649 0.81511649 0 0 0 116.85366 72.829875 L 115.53091 72.887004 L 114.72231 72.908977 A 0.81511649 0.81511649 0 0 0 114.71645 72.908977 L 113.90053 72.938274 L 113.08755 72.967571 A 0.81511649 0.81511649 0 0 0 113.07729 72.967571 L 112.26284 73.008586 L 111.49233 73.045207 L 110.11684 73.07011 A 0.81511649 0.81511649 0 0 0 110.11245 73.07011 L 109.298 73.090618 A 0.81511649 0.81511649 0 0 0 109.29214 73.090618 L 108.55678 73.111125 L 108.20962 73.099407 L 108.3063 73.7205 A 1.630233 1.630233 0 0 1 108.31069 73.751262 L 108.42348 74.559856 A 1.630233 1.630233 0 0 0 108.42348 74.561321 A 1.630233 1.630233 0 0 0 108.42348 74.562786 L 108.44692 74.737102 L 108.52309 74.740032 A 0.81511649 0.81511649 0 0 0 108.57583 74.742961 L 109.33755 74.719524 L 110.14907 74.701946 L 111.53481 74.674114 A 0.81511649 0.81511649 0 0 0 111.56118 74.674114 L 112.34341 74.634563 L 113.152 74.596477 L 113.95913 74.56718 L 114.76919 74.537883 L 115.58217 74.515911 A 0.81511649 0.81511649 0 0 0 115.59536 74.515911 L 116.92251 74.458782 L 117.72524 74.42802 L 118.82973 74.410442 L 119.64419 74.398723 L 119.62075 72.769817 z M 82.273092 84.356731 L 80.907858 84.394817 A 0.81511649 0.81511649 0 0 0 80.890279 84.396282 L 80.031881 84.437297 A 0.81511649 0.81511649 0 0 0 79.955709 84.444622 L 78.72524 84.618938 L 77.919576 84.734661 L 77.09194 84.845989 A 0.81511649 0.81511649 0 0 0 77.046529 84.851848 L 75.833639 85.083294 A 0.81511649 0.81511649 0 0 0 75.826314 85.086223 L 75.029439 85.245891 L 74.236959 85.392376 L 73.425436 85.53886 A 0.81511649 0.81511649 0 0 0 73.369771 85.550579 L 72.392721 85.799602 L 71.6061 85.978313 A 0.81511649 0.81511649 0 0 0 71.556295 85.992962 L 70.794576 86.217083 L 70.026998 86.392864 L 69.234517 86.57011 L 68.437642 86.748821 L 68.795064 88.339641 L 69.590474 88.16093 L 70.38735 87.982219 A 0.81511649 0.81511649 0 0 0 70.390279 87.982219 L 71.184225 87.800579 A 0.81511649 0.81511649 0 0 0 71.232564 87.787395 L 71.994283 87.563274 L 72.763326 87.387493 A 0.81511649 0.81511649 0 0 0 72.783834 87.380169 L 73.744771 87.137005 L 74.526998 86.99638 A 0.81511649 0.81511649 0 0 0 74.529928 86.99638 L 75.329732 86.849895 A 0.81511649 0.81511649 0 0 0 75.345846 86.845501 L 76.144186 86.685833 L 77.330709 86.457317 L 78.139303 86.350383 A 0.81511649 0.81511649 0 0 0 78.145162 86.347454 L 78.953756 86.234661 A 0.81511649 0.81511649 0 0 0 78.955221 86.234661 L 80.149069 86.064739 L 80.960592 86.025188 L 82.278951 85.988567 L 83.116842 86.044231 L 83.912252 86.105755 L 85.182272 86.387005 L 86.190084 86.753216 L 87.004537 87.245403 L 87.693014 87.869426 L 87.886373 88.127239 L 89.232565 88.408489 A 1.630233 1.630233 0 0 1 89.439108 88.467083 L 90.129049 88.708782 L 89.705709 87.859173 A 0.81511649 0.81511649 0 0 0 89.626608 87.731731 L 88.94985 86.827923 A 0.81511649 0.81511649 0 0 0 88.845846 86.7122 L 88.038717 85.984173 A 0.81511649 0.81511649 0 0 0 87.914205 85.890423 L 86.964987 85.317669 A 0.81511649 0.81511649 0 0 0 86.822897 85.250286 L 85.689108 84.835735 A 0.81511649 0.81511649 0 0 0 85.586569 84.806438 L 84.209615 84.500286 A 0.81511649 0.81511649 0 0 0 84.093893 84.484172 L 83.236959 84.419719 A 0.81511649 0.81511649 0 0 0 83.2311 84.418255 L 82.352194 84.359661 A 0.81511649 0.81511649 0 0 0 82.273092 84.356731 z M 89.387838 91.91093 L 89.506491 92.551067 L 90.281393 92.589153 A 1.630233 1.630233 0 0 1 90.294577 92.589153 L 90.379538 92.595013 L 90.042623 92.296184 L 89.387838 91.91093 z M 89.705709 95.823528 L 89.623678 96.444622 A 0.81511649 0.81511649 0 0 0 89.620748 96.46513 L 89.531393 97.276653 A 0.81511649 0.81511649 0 0 0 89.529928 97.30302 L 89.46694 98.10722 L 89.390768 98.915813 A 0.81511649 0.81511649 0 0 0 89.389303 98.931927 L 89.330709 99.714153 L 89.216452 100.49784 A 0.81511649 0.81511649 0 0 0 89.213522 100.5374 L 89.132955 101.35624 A 0.81511649 0.81511649 0 0 0 89.131491 101.36943 L 89.017233 102.78886 A 0.81511649 0.81511649 0 0 0 89.015768 102.79325 L 88.957174 103.60624 A 0.81511649 0.81511649 0 0 0 89.162252 104.21122 L 89.89028 105.02421 A 0.81511649 0.81511649 0 0 0 91.312643 104.49833 L 91.343405 103.24443 A 0.81511649 0.81511649 0 0 0 91.343405 103.24296 A 0.81511649 0.81511649 0 0 0 91.343405 103.2415 A 0.81511649 0.81511649 0 0 0 91.343405 103.24003 L 91.360983 102.42558 A 0.81511649 0.81511649 0 0 0 91.360983 102.42411 A 0.81511649 0.81511649 0 0 0 91.360983 102.42265 A 0.81511649 0.81511649 0 0 0 91.360983 102.42118 L 91.372702 101.61845 L 91.412252 100.81425 A 0.81511649 0.81511649 0 0 0 91.412252 100.78495 L 91.422506 99.971966 L 91.437155 99.161907 A 0.81511649 0.81511649 0 0 0 91.437155 99.160442 A 0.81511649 0.81511649 0 0 0 91.437155 99.158978 A 0.81511649 0.81511649 0 0 0 91.437155 99.157513 L 91.448873 98.319622 A 0.81511649 0.81511649 0 0 0 91.448873 98.28886 L 91.428366 97.329388 L 91.434225 96.529583 A 0.81511649 0.81511649 0 0 0 91.434225 96.500286 L 91.421041 95.994915 L 90.895163 95.890911 L 90.110006 95.844036 L 89.705709 95.823528 z " />
      <path
         id="path18440"
         style="color:#000000;fill:#4472c4;stroke-linecap:square;stroke-linejoin:round;stroke-miterlimit:10;-inkscape-stroke:none;fill-opacity:1"
         d="M 102.37075 60.765422 A 0.81511649 0.81511649 0 0 0 102.15835 60.793254 A 0.81511649 0.81511649 0 0 0 101.61489 61.275188 L 101.2853 62.085246 A 0.81511649 0.81511649 0 0 0 101.2311 62.474895 L 101.33217 63.478313 L 101.39809 64.281047 L 101.45522 65.091106 L 101.51235 65.898235 L 101.51235 65.904094 L 101.5021 66.380168 A 0.81511649 0.81511649 0 0 0 101.5021 66.431438 L 101.53432 67.223918 L 101.4728 68.359172 A 0.81511649 0.81511649 0 0 0 101.4728 68.388469 L 101.45669 69.202922 A 0.81511649 0.81511649 0 0 0 101.45669 69.208781 L 101.44643 70.014446 L 101.40981 70.828899 L 101.31167 72.033 A 0.81511649 0.81511649 0 0 0 101.31167 72.044719 L 101.25893 72.841594 L 101.16518 73.653118 L 101.01723 74.488078 A 0.81511649 0.81511649 0 0 0 101.01577 74.491008 L 100.87661 75.289348 L 100.7228 76.116985 L 100.5309 76.888957 L 100.33608 77.672649 L 100.11049 78.495891 L 99.54653 79.925579 L 99.241842 80.679973 A 0.81511649 0.81511649 0 0 0 99.241842 80.681438 L 98.93862 81.434368 L 98.632467 82.190227 A 0.81511649 0.81511649 0 0 0 98.629538 82.191692 L 98.32778 82.940227 L 98.012838 83.681438 A 0.81511649 0.81511649 0 0 0 98.011374 83.685833 L 97.697897 84.428508 L 97.368307 85.16386 A 0.81511649 0.81511649 0 0 0 97.368307 85.16679 L 97.038717 85.906536 L 96.704733 86.633098 A 0.81511649 0.81511649 0 0 0 96.68862 86.668255 L 96.26528 87.711223 L 95.957663 88.462688 L 95.664694 89.176067 A 0.81511649 0.81511649 0 0 0 95.644186 89.236126 L 95.151999 90.762493 L 94.905905 91.484661 A 0.81511649 0.81511649 0 0 0 94.889792 91.53593 L 94.472311 93.091595 L 94.359518 93.472454 A 1.630233 1.630233 0 0 1 94.486959 93.529583 L 95.447897 94.083294 A 1.630233 1.630233 0 0 1 95.69692 94.259075 L 95.806784 94.352825 L 95.824362 94.264934 L 96.036764 93.550091 A 0.81511649 0.81511649 0 0 0 96.045553 93.526653 L 96.458639 91.984173 L 96.697409 91.279583 A 0.81511649 0.81511649 0 0 0 96.703268 91.267864 L 97.185202 89.764934 L 97.466452 89.082317 L 97.775534 88.326458 A 0.81511649 0.81511649 0 0 0 97.775534 88.324993 A 0.81511649 0.81511649 0 0 0 97.775534 88.323528 L 98.193014 87.296673 L 98.524069 86.583294 A 0.81511649 0.81511649 0 0 0 98.526999 86.571575 L 98.858053 85.830364 L 99.192038 85.086223 A 0.81511649 0.81511649 0 0 0 99.199362 85.068645 L 99.514303 84.318645 L 99.832174 83.571575 A 0.81511649 0.81511649 0 0 0 99.838034 83.558391 L 100.14272 82.803997 L 100.4518 82.046672 A 0.81511649 0.81511649 0 0 0 100.45327 82.042278 L 100.75356 81.289348 L 101.06118 80.533489 A 0.81511649 0.81511649 0 0 0 101.06264 80.527629 L 101.64419 79.052532 A 0.81511649 0.81511649 0 0 0 101.67348 78.966106 L 101.91225 78.091594 A 0.81511649 0.81511649 0 0 0 101.91665 78.075481 L 102.11294 77.283 A 0.81511649 0.81511649 0 0 0 102.11294 77.281536 L 102.31069 76.486125 A 0.81511649 0.81511649 0 0 0 102.32241 76.436321 L 102.48061 75.580852 A 0.81511649 0.81511649 0 0 0 102.48208 75.572063 L 102.62124 74.772258 L 102.76626 73.972453 L 103.1354 75.040325 A 0.81511649 0.81511649 0 0 0 103.19546 75.173625 L 103.73305 76.125774 A 0.81511649 0.81511649 0 0 0 103.80337 76.229778 L 104.09048 76.594524 A 1.630233 1.630233 0 0 1 104.09341 76.546184 L 104.21499 75.372844 L 104.25161 74.621379 L 104.25014 73.845012 A 1.630233 1.630233 0 0 1 104.25161 73.745403 L 104.27505 73.349895 L 104.23257 73.229778 L 103.98794 72.195598 L 103.82094 71.480754 L 103.68911 70.363078 A 0.81511649 0.81511649 0 0 0 103.67739 70.298625 L 103.51919 69.50761 L 103.39614 68.767864 L 103.31118 67.421672 A 0.81511649 0.81511649 0 0 0 103.31118 67.420207 A 0.81511649 0.81511649 0 0 0 103.31118 67.418742 A 0.81511649 0.81511649 0 0 0 103.31118 67.417278 A 0.81511649 0.81511649 0 0 0 103.31118 67.415813 A 0.81511649 0.81511649 0 0 0 103.31118 67.414348 L 103.24966 66.596965 A 0.81511649 0.81511649 0 0 0 103.2438 66.54716 L 103.14272 65.80302 L 103.14712 65.599406 A 0.81511649 0.81511649 0 0 0 103.14712 65.597942 A 0.81511649 0.81511649 0 0 0 103.14712 65.596477 A 0.81511649 0.81511649 0 0 0 103.14712 65.595012 L 103.17202 63.964641 A 0.81511649 0.81511649 0 0 0 103.17202 63.963176 A 0.81511649 0.81511649 0 0 0 103.17202 63.958781 A 0.81511649 0.81511649 0 0 0 103.17202 63.954387 A 0.81511649 0.81511649 0 0 0 103.17202 63.949992 A 0.81511649 0.81511649 0 0 0 103.17202 63.945598 L 103.16616 63.134074 L 103.1852 61.591594 A 0.81511649 0.81511649 0 0 0 102.37075 60.765422 z M 123.42641 76.849407 L 122.61196 76.893352 L 121.41079 76.960735 L 120.60366 76.990032 A 0.81511649 0.81511649 0 0 0 120.59048 76.990032 L 119.78921 77.031047 L 118.95717 77.066204 A 0.81511649 0.81511649 0 0 0 118.94546 77.067668 L 118.13393 77.114543 L 117.32534 77.155559 A 0.81511649 0.81511649 0 0 0 117.31509 77.155559 L 116.49917 77.206829 A 0.81511649 0.81511649 0 0 0 116.49331 77.208293 L 115.68178 77.265422 A 0.81511649 0.81511649 0 0 0 115.68032 77.265422 L 114.91714 77.322551 L 113.62368 77.359172 A 0.81511649 0.81511649 0 0 0 113.61489 77.359172 L 112.80337 77.389934 L 112.06508 77.416301 L 110.78774 77.384075 A 0.81511649 0.81511649 0 0 0 110.78335 77.384075 L 110.07436 77.369426 L 108.92007 77.231731 L 108.95522 77.38261 L 109.31704 78.50761 L 109.54116 78.945598 L 109.92202 78.991008 A 0.81511649 0.81511649 0 0 0 109.99966 78.998333 L 110.74819 79.012981 L 112.04751 79.046672 A 0.81511649 0.81511649 0 0 0 112.09585 79.046672 L 112.85903 79.01884 A 0.81511649 0.81511649 0 0 0 112.86342 79.01884 L 113.67348 78.988079 L 114.98305 78.951458 A 0.81511649 0.81511649 0 0 0 115.01821 78.948528 L 115.79751 78.889934 L 116.60464 78.832805 L 117.41323 78.783 L 118.21889 78.741985 A 0.81511649 0.81511649 0 0 0 118.22475 78.741985 L 119.03335 78.69511 L 119.86245 78.659954 A 0.81511649 0.81511649 0 0 0 119.86977 78.659954 L 120.66811 78.618938 L 121.47524 78.589641 A 0.81511649 0.81511649 0 0 0 121.49282 78.589641 L 122.70132 78.522258 L 123.51577 78.478313 L 123.42641 76.849407 z M 85.721334 88.784954 L 84.318014 88.836223 A 0.81511649 0.81511649 0 0 0 84.300436 88.837688 L 83.444967 88.884563 A 0.81511649 0.81511649 0 0 0 83.37319 88.891887 L 82.089987 89.079387 A 0.81511649 0.81511649 0 0 0 82.085592 89.079387 L 81.282858 89.200969 L 80.456686 89.318157 A 0.81511649 0.81511649 0 0 0 80.4186 89.324016 L 79.125143 89.574505 A 0.81511649 0.81511649 0 0 0 79.109029 89.575969 L 78.320943 89.742962 L 77.532858 89.889446 A 0.81511649 0.81511649 0 0 0 77.529928 89.889446 L 76.718404 90.04179 A 0.81511649 0.81511649 0 0 0 76.6686 90.053509 L 75.587545 90.32597 L 74.805318 90.506145 A 0.81511649 0.81511649 0 0 0 74.752584 90.519329 L 73.987936 90.747845 L 73.223287 90.929485 L 72.429342 91.111126 L 71.635396 91.292766 L 71.998678 92.880657 L 72.792623 92.699016 L 73.589498 92.517376 A 0.81511649 0.81511649 0 0 0 73.595357 92.517376 L 74.389303 92.329876 A 0.81511649 0.81511649 0 0 0 74.433248 92.316692 L 75.194967 92.089641 L 75.96108 91.91386 A 0.81511649 0.81511649 0 0 0 75.980123 91.908001 L 77.045065 91.63847 L 77.830221 91.49052 L 78.627096 91.344036 A 0.81511649 0.81511649 0 0 0 78.646139 91.339641 L 79.440084 91.174114 L 80.705709 90.929485 L 81.515768 90.813762 A 0.81511649 0.81511649 0 0 0 81.523092 90.813762 L 82.328756 90.693645 L 83.572408 90.512005 L 84.385397 90.46513 L 85.740377 90.415325 L 86.573873 90.466595 L 87.397116 90.523723 L 88.680319 90.790325 L 89.70278 91.152141 L 90.523092 91.634075 L 91.214498 92.24345 L 91.566061 92.700481 L 92.831686 92.952434 A 1.630233 1.630233 0 0 1 93.035299 93.005169 L 93.753073 93.248333 L 93.21987 92.20097 A 0.81511649 0.81511649 0 0 0 93.139303 92.074993 L 92.459616 91.187298 A 0.81511649 0.81511649 0 0 0 92.351217 91.074505 L 91.542623 90.361126 A 0.81511649 0.81511649 0 0 0 91.418112 90.268841 L 90.463034 89.706341 A 0.81511649 0.81511649 0 0 0 90.320944 89.640423 L 89.169577 89.236126 A 0.81511649 0.81511649 0 0 0 89.067037 89.206829 L 87.673971 88.915325 A 0.81511649 0.81511649 0 0 0 87.564108 88.902141 L 86.682272 88.842083 A 0.81511649 0.81511649 0 0 0 86.676412 88.842083 L 85.800436 88.786419 A 0.81511649 0.81511649 0 0 0 85.721334 88.784954 z M 92.956198 96.421185 L 93.042624 96.875286 L 93.134909 97.714642 L 93.26528 99.097454 L 93.271139 99.236614 L 93.26528 99.268841 A 0.81511649 0.81511649 0 0 0 93.25942 99.298138 L 93.124655 100.1038 A 0.81511649 0.81511649 0 0 0 93.115866 100.18876 L 93.027975 101.65361 L 92.953268 102.45341 A 0.81511649 0.81511649 0 0 0 92.951803 102.46659 L 92.89028 103.25322 L 92.777487 104.03837 A 0.81511649 0.81511649 0 0 0 92.773092 104.07353 L 92.691061 104.86747 L 92.576803 105.66142 A 0.81511649 0.81511649 0 0 0 92.569479 105.70683 L 92.497702 106.52275 A 0.81511649 0.81511649 0 0 0 92.493307 106.5623 L 92.431784 108.12529 A 0.81511649 0.81511649 0 0 0 92.667624 108.7332 L 93.480612 109.54911 A 0.81511649 0.81511649 0 0 0 94.872213 108.98661 L 94.888327 107.94804 A 0.81511649 0.81511649 0 0 0 94.888327 107.94658 A 0.81511649 0.81511649 0 0 0 94.888327 107.94511 A 0.81511649 0.81511649 0 0 0 94.888327 107.94365 A 0.81511649 0.81511649 0 0 0 94.888327 107.94218 A 0.81511649 0.81511649 0 0 0 94.888327 107.94072 A 0.81511649 0.81511649 0 0 0 94.888327 107.93925 L 94.894186 106.46269 L 94.932272 105.66581 A 0.81511649 0.81511649 0 0 0 94.933737 105.64091 L 94.945456 104.82792 L 94.964499 104.01347 A 0.81511649 0.81511649 0 0 0 94.964499 104.01201 A 0.81511649 0.81511649 0 0 0 94.964499 104.01054 A 0.81511649 0.81511649 0 0 0 94.964499 104.00908 L 94.980612 103.19462 L 94.996725 102.35527 A 0.81511649 0.81511649 0 0 0 94.996725 102.31865 L 94.955709 100.69706 L 94.935202 99.884075 A 0.81511649 0.81511649 0 0 0 94.935202 99.88261 A 0.81511649 0.81511649 0 0 0 94.935202 99.875286 A 0.81511649 0.81511649 0 0 0 94.935202 99.870892 A 0.81511649 0.81511649 0 0 0 94.935202 99.863567 L 94.911764 99.353802 L 95.026022 98.791302 A 0.81511649 0.81511649 0 0 0 95.031881 98.753216 L 95.064108 98.548138 L 94.756491 97.954876 L 94.265768 97.329388 L 93.687155 96.831341 L 92.998678 96.435833 L 92.956198 96.421185 z " />
      <path
         style="color:#000000;fill:#4472c4;stroke-linecap:square;stroke-linejoin:round;stroke-miterlimit:10;-inkscape-stroke:none;fill-opacity:1"
         d="m 105.98633,65.099609 a 0.81511649,0.81511649 0 0 0 -0.80078,0.798828 l -0.0195,1.054688 a 0.81511649,0.81511649 0 0 0 0,0.01172 l -0.002,0.814453 a 0.81511649,0.81511649 0 0 0 0,0.04102 l 0.0371,0.792969 -0.0137,0.789063 a 0.81511649,0.81511649 0 0 0 0,0.02344 l 0.0117,0.814453 0.002,0.800782 -0.0195,0.798828 -0.0684,1.136718 a 0.81511649,0.81511649 0 0 0 0,0.002 l -0.0469,0.814453 a 0.81511649,0.81511649 0 0 0 -0.002,0.05078 l 0.002,0.796875 -0.0391,0.794922 -0.12304,1.193359 a 0.81511649,0.81511649 0 0 0 -0.002,0.02734 l -0.0547,0.798828 -0.0898,0.820313 -0.11718,0.86914 -0.11133,0.78711 -0.1543,0.80664 -0.20508,0.792969 -0.20508,0.785156 -0.22461,0.822266 -0.45507,1.175781 a 0.81511649,0.81511649 0 0 0 -0.002,0.0039 l -0.28906,0.75586 -0.29687,0.753906 a 0.81511649,0.81511649 0 0 0 -0.002,0.0059 l -0.29101,0.753907 -0.30274,0.748046 a 0.81511649,0.81511649 0 0 0 0,0.002 l -0.30664,0.755859 -0.30469,0.753906 -0.30468,0.748047 -0.31641,0.748047 a 0.81511649,0.81511649 0 0 0 -0.002,0 l -0.31055,0.738281 a 0.81511649,0.81511649 0 0 0 -0.004,0.0059 l -0.45507,1.099609 -0.318363,0.740234 -0.310547,0.69336 a 0.81511649,0.81511649 0 0 0 -0.0293,0.07422 l -0.267578,0.789063 a 0.81511649,0.81511649 0 0 0 -0.002,0.0039 l -0.25586,0.769531 -0.248046,0.722657 a 0.81511649,0.81511649 0 0 0 -0.01758,0.06055 L 98.4375,96.855469 98.240234,97.625 98.011719,98.34375 a 0.81511649,0.81511649 0 0 0 -0.02148,0.08594 l -0.126953,0.621094 -0.394531,-1.158203 a 0.81511649,0.81511649 0 0 0 -0.04883,-0.113281 l -0.564453,-1.085938 a 0.81511649,0.81511649 0 0 0 -0.08203,-0.126953 l -0.683593,-0.871094 a 0.81511649,0.81511649 0 0 0 -0.109375,-0.115234 l -0.814453,-0.701172 a 0.81511649,0.81511649 0 0 0 -0.125,-0.08789 l -0.962891,-0.554688 a 0.81511649,0.81511649 0 0 0 -0.144531,-0.06641 l -1.160157,-0.390625 a 0.81511649,0.81511649 0 0 0 -0.101562,-0.02734 l -1.410156,-0.28125 a 0.81511649,0.81511649 0 0 0 -0.109375,-0.01367 l -0.90625,-0.05273 a 0.81511649,0.81511649 0 0 0 -0.0059,-0.002 l -0.878906,-0.04492 a 0.81511649,0.81511649 0 0 0 -0.07813,0 l -1.441406,0.06445 a 0.81511649,0.81511649 0 0 0 -0.01563,0 l -0.857422,0.05469 a 0.81511649,0.81511649 0 0 0 -0.06836,0.0078 l -1.333985,0.201172 a 0.81511649,0.81511649 0 0 0 -0.002,0 l -0.808594,0.123047 -0.826172,0.123047 a 0.81511649,0.81511649 0 0 0 -0.03711,0.0078 l -1.369141,0.269531 a 0.81511649,0.81511649 0 0 0 -0.0098,0.002 l -0.792969,0.169922 -0.794922,0.154297 -0.808594,0.154297 a 0.81511649,0.81511649 0 0 0 -0.04492,0.0098 l -1.181641,0.298828 -0.789063,0.185547 a 0.81511649,0.81511649 0 0 0 -0.05078,0.01367 l -0.759765,0.232421 -0.767579,0.183594 -0.789062,0.185547 -0.792969,0.185547 0.371094,1.585937 0.792969,-0.185546 0.791015,-0.183594 a 0.81511649,0.81511649 0 0 0 0.0059,-0.002 l 0.792968,-0.191407 a 0.81511649,0.81511649 0 0 0 0.04687,-0.01172 L 78.5,96.765625 79.271484,96.583984 a 0.81511649,0.81511649 0 0 0 0.01367,-0.0039 l 1.164063,-0.294922 0.785156,-0.15039 a 0.81511649,0.81511649 0 0 0 0.002,0 l 0.800781,-0.15625 a 0.81511649,0.81511649 0 0 0 0.01367,-0.002 l 0.794922,-0.167968 1.34375,-0.267578 L 85,95.419922 a 0.81511649,0.81511649 0 0 0 0.002,0 l 0.806641,-0.123047 1.298828,-0.195313 0.814453,-0.05273 1.394531,-0.06055 0.837891,0.04297 0.84375,0.05078 1.304687,0.257813 1.033203,0.349609 0.824219,0.474609 0.697266,0.59961 0.58789,0.75 0.5,0.96289 0.419922,1.226563 0.175782,0.835935 0.15039,0.77735 0.0918,0.83984 0.128906,1.35938 0.03125,0.73242 -0.08203,0.38476 a 0.81511649,0.81511649 0 0 0 -0.01563,0.10157 l -0.121094,1.44726 -0.07031,0.80664 -0.07813,0.8125 a 0.81511649,0.81511649 0 0 0 0,0.008 l -0.06836,0.78711 -0.117187,0.78516 a 0.81511649,0.81511649 0 0 0 -0.0039,0.0332 l -0.08789,0.79492 -0.119141,0.80079 a 0.81511649,0.81511649 0 0 0 -0.0059,0.0508 l -0.07031,0.84179 a 0.81511649,0.81511649 0 0 0 -0.002,0.0156 l -0.04883,0.81641 a 0.81511649,0.81511649 0 0 0 0.232422,0.62304 l 0.808594,0.81836 a 0.81511649,0.81511649 0 0 0 1.394531,-0.56055 l 0.01953,-1.30273 a 0.81511649,0.81511649 0 0 0 0,-0.008 l 0.0098,-1.46875 0.04102,-0.79688 a 0.81511649,0.81511649 0 0 0 0,-0.0234 l 0.01563,-0.8125 0.02344,-0.8125 a 0.81511649,0.81511649 0 0 0 0,-0.004 l 0.01758,-0.81445 a 0.81511649,0.81511649 0 0 0 0,-0.004 l 0.01758,-0.8418 a 0.81511649,0.81511649 0 0 0 0,-0.0352 l -0.03516,-1.57227 a 0.81511649,0.81511649 0 0 0 0,-0.002 l -0.01758,-0.73047 0.04492,-0.21094 a 0.81511649,0.81511649 0 0 0 0.0078,-0.043 l 0.125,-0.80273 0.138672,-0.79688 a 0.81511649,0.81511649 0 0 0 0.0078,-0.0508 l 0.11914,-1.07812 0.154297,-0.72852 0.179688,-0.789061 a 0.81511649,0.81511649 0 0 0 0.0039,-0.01953 l 0.216797,-1.070312 0.222656,-0.701172 a 0.81511649,0.81511649 0 0 0 0.01172,-0.04297 l 0.20313,-0.789062 0.20312,-0.785156 0.23828,-0.695313 a 0.81511649,0.81511649 0 0 0 0.002,-0.0078 l 0.25782,-0.771485 0.2539,-0.75 0.29883,-0.664062 a 0.81511649,0.81511649 0 0 0 0.006,-0.01367 l 0.32227,-0.751953 a 0.81511649,0.81511649 0 0 0 0.004,-0.0078 l 0.45703,-1.101562 0.31055,-0.736328 0.31836,-0.75 a 0.81511649,0.81511649 0 0 0 0.004,-0.01172 L 103,89.462891 a 0.81511649,0.81511649 0 0 0 0,-0.002 l 0.30664,-0.755859 0.30664,-0.757812 0.30469,-0.751954 a 0.81511649,0.81511649 0 0 0 0.006,-0.01367 l 0.29101,-0.757813 0.29883,-0.755859 a 0.81511649,0.81511649 0 0 0 0.002,-0.0078 l 0.29101,-0.759765 0.46875,-1.212891 a 0.81511649,0.81511649 0 0 0 0.0273,-0.08203 l 0.23633,-0.865235 a 0.81511649,0.81511649 0 0 0 0.002,-0.0078 l 0.20703,-0.789063 a 0.81511649,0.81511649 0 0 0 0,-0.002 l 0.21289,-0.818359 a 0.81511649,0.81511649 0 0 0 0.0117,-0.05273 l 0.16211,-0.851562 a 0.81511649,0.81511649 0 0 0 0.006,-0.03906 l 0.11523,-0.810546 a 0.81511649,0.81511649 0 0 0 0,-0.0039 l 0.11914,-0.882812 a 0.81511649,0.81511649 0 0 0 0.002,-0.01953 l 0.0918,-0.847657 a 0.81511649,0.81511649 0 0 0 0.004,-0.03125 l 0.004,-0.06641 0.10938,0.478516 a 0.81511649,0.81511649 0 0 0 0.0195,0.06836 l 0.42383,1.318359 a 0.81511649,0.81511649 0 0 0 0.0508,0.121094 l 0.48633,0.951172 a 0.81511649,0.81511649 0 0 0 0.0859,0.134766 l 0.55469,0.701172 a 0.81511649,0.81511649 0 0 0 0.0996,0.103515 l 0.61133,0.541016 a 0.81511649,0.81511649 0 0 0 0.11914,0.08789 l 0.71289,0.429688 a 0.81511649,0.81511649 0 0 0 0.12891,0.06445 l 0.89257,0.339844 a 0.81511649,0.81511649 0 0 0 0.0977,0.03125 l 1.12695,0.273437 a 0.81511649,0.81511649 0 0 0 0.0937,0.01758 l 1.48633,0.183594 a 0.81511649,0.81511649 0 0 0 0.082,0.0059 l 0.73438,0.01563 1.24805,0.04883 a 0.81511649,0.81511649 0 0 0 0.0586,0 l 0.75586,-0.02539 0.80859,-0.01563 1.22266,-0.02344 a 0.81511649,0.81511649 0 0 0 0.0371,-0.002 l 0.76953,-0.04883 0.80859,-0.03906 0.80664,-0.03711 0.81055,-0.0293 a 0.81511649,0.81511649 0 0 0 0.0137,0 L 123,83.146484 a 0.81511649,0.81511649 0 0 0 0.008,0 l 0.78125,-0.05078 1.61524,-0.01953 a 0.81511649,0.81511649 0 0 0 0.008,0 l 1.24023,-0.02539 0.81641,-0.01563 -0.0332,-1.628906 -0.81641,0.01563 -1.23633,0.02539 -1.63281,0.01758 a 0.81511649,0.81511649 0 0 0 -0.043,0.002 l -0.79687,0.05078 -1.25586,0.06641 -0.8086,0.0293 a 0.81511649,0.81511649 0 0 0 -0.01,0 l -0.8125,0.03906 -0.81446,0.03711 a 0.81511649,0.81511649 0 0 0 -0.0137,0.002 l -0.75781,0.04883 -1.20508,0.02148 -0.81445,0.01563 a 0.81511649,0.81511649 0 0 0 -0.0117,0.002 l -0.73242,0.02344 -1.22461,-0.04687 a 0.81511649,0.81511649 0 0 0 -0.0137,0 l -0.70117,-0.01563 -1.39844,-0.173828 -1.03125,-0.25 -0.77539,-0.294922 -0.58789,-0.355468 -0.50196,-0.44336 -0.45898,-0.582031 -0.41992,-0.820313 -0.39258,-1.222656 -0.24219,-1.058594 -0.15234,-0.71289 -0.15821,-1.154297 -0.11132,-0.808594 a 0.81511649,0.81511649 0 0 0 -0.002,-0.01563 l -0.11718,-0.740234 -0.0684,-1.324219 a 0.81511649,0.81511649 0 0 0 0,-0.0059 l -0.0469,-0.810547 a 0.81511649,0.81511649 0 0 0 -0.006,-0.05664 l -0.10351,-0.802734 -0.0742,-0.792969 -0.0703,-0.804687 -0.0527,-0.802735 a 0.81511649,0.81511649 0 0 0 -0.002,-0.03125 l -0.10742,-1.013672 -0.0391,-0.791015 a 0.81511649,0.81511649 0 0 0 -0.82812,-0.771485 z"
         id="path18460" />
    </g>
  </g>
</svg>
