<?xml version="1.0" encoding="UTF-8" standalone="no"?>
<!-- Created with Inkscape (http://www.inkscape.org/) -->

<svg
   version="1.1"
   id="svg2"
   width="221.92212"
   height="52.420269"
   viewBox="0 0 221.92212 52.420269"
   sodipodi:docname="logo_horizontal_light.svg"
   inkscape:version="1.2.2 (732a01da63, 2022-12-09)"
   xmlns:inkscape="http://www.inkscape.org/namespaces/inkscape"
   xmlns:sodipodi="http://sodipodi.sourceforge.net/DTD/sodipodi-0.dtd"
   xmlns="http://www.w3.org/2000/svg"
   xmlns:svg="http://www.w3.org/2000/svg">
  <defs
     id="defs6">
    <clipPath
       clipPathUnits="userSpaceOnUse"
       id="clipPath22">
      <path
         d="M 21.5964,14.4936 H 123.0516 V 115.9488 H 21.5964 Z"
         id="path20" />
    </clipPath>
    <clipPath
       clipPathUnits="userSpaceOnUse"
       id="clipPath34">
      <path
         d="M 21.5964,14.4936 H 123.0516 V 115.9488 H 21.5964 Z"
         id="path32" />
    </clipPath>
    <clipPath
       clipPathUnits="userSpaceOnUse"
       id="clipPath46">
      <path
         d="M 21.5964,14.4936 H 123.0516 V 115.9488 H 21.5964 Z"
         id="path44" />
    </clipPath>
    <clipPath
       clipPathUnits="userSpaceOnUse"
       id="clipPath58">
      <path
         d="M 21.5964,14.4936 H 123.0516 V 115.9488 H 21.5964 Z"
         id="path56" />
    </clipPath>
    <clipPath
       clipPathUnits="userSpaceOnUse"
       id="clipPath70">
      <path
         d="M 21.5964,14.4936 H 123.0516 V 115.9488 H 21.5964 Z"
         id="path68" />
    </clipPath>
    <clipPath
       clipPathUnits="userSpaceOnUse"
       id="clipPath82">
      <path
         d="M 21.5964,14.4936 H 123.0516 V 115.9488 H 21.5964 Z"
         id="path80" />
    </clipPath>
    <clipPath
       clipPathUnits="userSpaceOnUse"
       id="clipPath94">
      <path
         d="M 21.5964,14.4936 H 123.0516 V 115.9488 H 21.5964 Z"
         id="path92" />
    </clipPath>
  </defs>
  <sodipodi:namedview
     id="namedview4"
     pagecolor="#ffffff"
     bordercolor="#000000"
     borderopacity="0.25"
     inkscape:showpageshadow="2"
     inkscape:pageopacity="0.0"
     inkscape:pagecheckerboard="0"
     inkscape:deskcolor="#d1d1d1"
     showgrid="false"
     inkscape:zoom="5.3734064"
     inkscape:cx="109.89305"
     inkscape:cy="11.352203"
     inkscape:window-width="2560"
     inkscape:window-height="1529"
     inkscape:window-x="1912"
     inkscape:window-y="-8"
     inkscape:window-maximized="1"
     inkscape:current-layer="text457">
    <inkscape:page
       x="0"
       y="0"
       id="page8"
       width="221.92212"
       height="52.420269"
       inkscape:export-filename="horizontal_logo.png"
       inkscape:export-xdpi="300"
       inkscape:export-ydpi="300" />
  </sodipodi:namedview>
  <g
     id="g10"
     inkscape:groupmode="layer"
     inkscape:label="Page 1"
     transform="matrix(1.3333333,0,0,-1.3333333,-47.690398,129.72415)">
    <g
       aria-label="SDynPy"
       transform="scale(1,-1)"
       id="text457"
       style="font-size:36px;fill:#f2f2f2;stroke-width:0.75">
      <path
         d="m 90.573423,-75.905913 -5.148,-1.296 q -2.628,-0.648 -3.78,-2.304 -1.116,-1.692 -1.116,-4.608 0,-2.16 0.432,-3.456 0.468,-1.332 1.548,-1.98 1.116,-0.684 2.448,-0.9 1.368,-0.216 3.636,-0.216 4.392,0.072 7.38,0.72 l -0.216,2.304 q -3.492,-0.18 -7.02,-0.18 -1.584,0 -2.34,0.072 -0.756,0.072 -1.476,0.432 -0.72,0.36 -0.972,1.152 -0.216,0.756 -0.216,2.124 0,1.98 0.684,2.808 0.72,0.828 2.448,1.26 l 5.04,1.26 q 2.772,0.684 3.888,2.34 1.116,1.656 1.116,4.644 0,4.104 -1.872,5.436 -1.836,1.332 -6.444,1.332 -3.924,0 -7.704,-0.684 l 0.216,-2.34 q 6.048,0.216 7.596,0.18 2.952,0 3.96,-0.756 1.044,-0.756 1.044,-3.24 0,-2.052 -0.72,-2.844 -0.684,-0.828 -2.412,-1.26 z"
         id="path1696" />
      <path
         d="m 101.87745,-65.393913 v -24.84 q 4.68,-0.324 8.856,-0.324 5.364,0 7.524,2.808 2.16,2.772 2.16,9.936 0,7.164 -2.16,9.972 -2.16,2.772 -7.524,2.772 -4.176,0 -8.856,-0.324 z m 3.168,-22.356 v 19.836 q 3.24,0.072 5.688,0.072 3.564,0 4.968,-2.16 1.404,-2.196 1.404,-7.812 0,-5.616 -1.404,-7.812 -1.404,-2.196 -4.968,-2.196 -2.304,0 -5.688,0.072 z"
         id="path1698" />
      <path
         d="m 141.00944,-82.925913 -7.02,18.504 q -2.304,6.192 -7.668,6.444 l -0.288,-2.016 q 2.052,-0.648 3.204,-1.8 1.188,-1.116 1.908,-2.844 l 0.288,-0.756 h -0.684 q -0.864,0 -1.08,-0.792 l -6.372,-16.74 h 3.276 l 4.644,13.068 q 0.504,1.476 0.648,2.124 h 0.504 q 0.288,-0.72 0.756,-2.124 l 4.572,-13.068 z"
         id="path1700" />
      <path
         d="m 147.09341,-82.925913 0.216,2.772 q 4.248,-3.204 7.848,-3.204 4.752,0 4.752,4.824 v 13.14 h -3.06 v -12.276 q 0,-1.728 -0.576,-2.412 -0.576,-0.684 -1.944,-0.684 -1.44,0 -2.916,0.648 -1.44,0.648 -3.852,2.124 v 12.6 h -3.06 v -17.532 z"
         id="path1702" />
      <path
         d="m 165.74139,-65.393913 v -24.84 q 3.024,-0.324 8.532,-0.324 4.536,0 6.264,1.656 1.728,1.62 1.728,6.12 0,4.5 -1.692,6.156 -1.656,1.62 -5.94,1.62 -2.952,0 -5.724,-0.324 v 9.936 z m 3.168,-12.348 h 5.328 q 2.772,-0.036 3.78,-1.044 1.044,-1.044 1.044,-3.996 0,-2.952 -1.044,-3.996 -1.044,-1.044 -3.78,-1.044 -3.924,0 -5.328,0.036 z"
         style="font-family:'Exo 2';-inkscape-font-specification:'Exo 2, '"
         id="path1704" />
      <path
         d="m 202.2094,-82.925913 -7.02,18.504 q -2.304,6.192 -7.668,6.444 l -0.288,-2.016 q 2.052,-0.648 3.204,-1.8 1.188,-1.116 1.908,-2.844 l 0.288,-0.756 h -0.684 q -0.864,0 -1.08,-0.792 l -6.372,-16.74 h 3.276 l 4.644,13.068 q 0.504,1.476 0.648,2.124 h 0.504 q 0.288,-0.72 0.756,-2.124 l 4.572,-13.068 z"
         style="font-family:'Exo 2';-inkscape-font-specification:'Exo 2, '"
         id="path1706" />
    </g>
    <g
       id="g22105"
       transform="matrix(0.5349522,0,0,-0.5349522,5.4972195,119.25544)"
       style="fill:#f2f2f2;fill-opacity:1">
      <g
         id="g18312"
         transform="translate(7.5000003,7.5000006)"
         style="fill:#f2f2f2;fill-opacity:1" />
      <path
         id="path18340"
         style="color:#000000;fill:#f2f2f2;fill-opacity:1;stroke-linecap:square;stroke-linejoin:round;stroke-miterlimit:10;-inkscape-stroke:none"
         d="m 85.352194,41.091105 a 0.81511649,0.81511649 0 0 0 -0.914063,0.319336 l -0.561035,0.821777 a 0.81511649,0.81511649 0 0 0 -0.136231,0.533203 l 0.0835,0.924317 a 0.81511649,0.81511649 0 0 0 0.0044,0.01904 l 0.09375,0.804199 0.07178,0.80127 a 0.81511649,0.81511649 0 0 0 0.0044,0.04541 l 0.117187,0.791015 0.0791,0.791016 0.07471,0.802734 0.09522,1.201172 a 0.81511649,0.81511649 0 0 0 0.01758,0.117188 l 0.02051,0.08203 0.0059,0.673828 -0.03369,0.811524 -0.104004,1.100097 a 0.81511649,0.81511649 0 0 0 0,0.0029 l -0.07324,0.810059 -0.08057,0.832031 -0.250488,1.504395 a 0.81511649,0.81511649 0 0 0 0,0.0059 l -0.130371,0.827637 -0.358887,1.404785 a 0.81511649,0.81511649 0 0 0 -0.0029,0.0029 l -0.210938,0.83789 -0.587402,1.45752 -0.306153,0.751465 -0.613769,1.504394 -0.316406,0.745606 -0.316407,0.742675 -0.328125,0.736817 -0.32959,0.739746 -0.342773,0.736816 a 0.81511649,0.81511649 0 0 0 -0.0088,0.01758 l -0.319336,0.732421 a 0.81511649,0.81511649 0 0 0 -0.0073,0.02051 l -0.350098,0.871582 -0.306152,0.748536 -0.297364,0.708984 a 0.81511649,0.81511649 0 0 0 -0.0249,0.07031 l -0.433594,1.3667 -0.27539,0.697265 a 0.81511649,0.81511649 0 0 0 -0.03076,0.09961 l -0.361816,1.437011 -0.04687,0.159668 a 1.630233,1.630233 0 0 1 0.0059,0.0029 l 0.909668,0.609375 a 1.630233,1.630233 0 0 1 0.209473,0.164063 l 0.27539,0.257812 0.0073,-0.04102 0.208008,-0.711914 a 0.81511649,0.81511649 0 0 0 0.0073,-0.0293 l 0.353028,-1.401856 0.263672,-0.673828 a 0.81511649,0.81511649 0 0 0 0.02051,-0.05127 l 0.430665,-1.359375 0.285644,-0.679687 a 0.81511649,0.81511649 0 0 0 0.0015,-0.0059 l 0.309082,-0.755859 a 0.81511649,0.81511649 0 0 0 0.0015,-0.0029 l 0.345703,-0.861328 0.310547,-0.713379 0.339844,-0.733886 a 0.81511649,0.81511649 0 0 0 0.0044,-0.0088 l 0.333985,-0.745605 a 0.81511649,0.81511649 0 0 0 0.0015,-0.0015 l 0.331055,-0.74707 a 0.81511649,0.81511649 0 0 0 0.0059,-0.0088 l 0.317872,-0.75 0.317871,-0.75293 a 0.81511649,0.81511649 0 0 0 0.0044,-0.0088 L 83.778951,60.783 a 0.81511649,0.81511649 0 0 0 0.0029,-0.0015 l 0.304688,-0.754394 a 0.81511649,0.81511649 0 0 0 0,-0.0015 l 0.609375,-1.508789 a 0.81511649,0.81511649 0 0 0 0.03516,-0.105469 l 0.224121,-0.890625 0.369141,-1.441406 a 0.81511649,0.81511649 0 0 0 0.01611,-0.07324 l 0.13623,-0.864257 0.153809,-0.925782 0.266602,0.725098 a 0.81511649,0.81511649 0 0 0 0.05859,0.123047 l 0.546387,0.955078 a 0.81511649,0.81511649 0 0 0 0.09522,0.134766 l 0.01758,0.01904 0.06152,-0.657715 a 1.630233,1.630233 0 0 1 0,-0.01172 l 0.111329,-1.08252 0.03223,-0.767578 -0.0015,-0.741211 a 1.630233,1.630233 0 0 1 -0.02197,-0.145019 l -0.02051,-0.290039 -0.111328,-0.37793 -0.205078,-0.719238 -0.168457,-1.026856 -0.127442,-0.804199 a 0.81511649,0.81511649 0 0 0 -0.0088,-0.05566 l -0.123047,-0.541992 -0.01611,-0.748535 0.03076,-1.08252 a 0.81511649,0.81511649 0 0 0 0,-0.05566 l -0.03516,-0.826172 -0.02051,-0.801269 -0.0088,-0.810059 a 0.81511649,0.81511649 0 0 0 -0.0015,-0.04687 l -0.05127,-0.791016 -0.0029,-0.788086 v -1.132324 a 0.81511649,0.81511649 0 0 0 -0.574218,-0.777832 z m 19.974606,15.963868 -0.81445,0.02051 -1.61133,0.04102 -0.81445,0.01611 a 0.81511649,0.81511649 0 0 0 -0.003,0 l -0.81445,0.01904 a 0.81511649,0.81511649 0 0 0 -0.0103,0 l -0.81592,0.02783 a 0.81511649,0.81511649 0 0 0 -10e-4,0.0015 l -0.27979,0.01172 a 1.630233,1.630233 0 0 1 0.0352,0.117187 l 0.0395,0.925782 a 1.630233,1.630233 0 0 1 0,0.07471 l -0.001,0.509765 0.26953,-0.01025 0.80566,-0.0293 0.81153,-0.01758 0.81152,-0.01758 a 0.81511649,0.81511649 0 0 0 0.004,0 l 1.61573,-0.04102 0.81445,-0.01904 z m -8.387692,0.22705 -0.175781,0.0059 0.03369,0.221191 a 1.630233,1.630233 0 0 1 0.01172,0.108399 l 0.03955,0.483398 a 1.630233,1.630233 0 0 1 0.0029,-0.106934 z M 69.53774,67.95341 l -1.234863,0.0029 a 0.81511649,0.81511649 0 0 0 -0.04687,0.0029 l -0.856934,0.0498 a 0.81511649,0.81511649 0 0 0 -0.03809,0.0044 l -1.040039,0.111328 a 0.81511649,0.81511649 0 0 0 -0.0044,0 l -0.810059,0.08936 a 0.81511649,0.81511649 0 0 0 -0.01465,0 l -0.829102,0.105468 a 0.81511649,0.81511649 0 0 0 -0.03955,0.0059 l -0.938965,0.164062 -0.796875,0.127442 a 0.81511649,0.81511649 0 0 0 -0.0044,0 l -0.807129,0.130371 a 0.81511649,0.81511649 0 0 0 -0.0293,0.0073 l -0.805664,0.159668 -1.461914,0.282715 a 0.81511649,0.81511649 0 0 0 -0.06445,0.01611 l -0.764649,0.212402 -0.770508,0.166993 -0.796875,0.165527 -0.796875,0.165527 0.33252,1.59668 0.79834,-0.166992 0.796875,-0.165528 a 0.81511649,0.81511649 0 0 0 0.0059,-0.0029 l 0.796875,-0.169922 a 0.81511649,0.81511649 0 0 0 0.04687,-0.01172 l 0.758789,-0.210937 1.431153,-0.276856 a 0.81511649,0.81511649 0 0 0 0.0059,-0.0015 l 0.79248,-0.158203 0.791016,-0.128906 0.802735,-0.127441 a 0.81511649,0.81511649 0 0 0 0.01465,-0.0015 l 0.925781,-0.162598 0.805664,-0.101074 0.802735,-0.09082 1.022461,-0.106933 0.814453,-0.04834 1.163086,-0.0044 1.539551,0.177247 1.195312,0.307617 0.947754,0.416015 0.788086,0.536133 0.212402,0.203614 0.232911,0.02344 a 1.630233,1.630233 0 0 1 0.222656,0.03955 l 1.328613,0.328125 a 1.630233,1.630233 0 0 1 0.246094,0.08203 l 0.533203,0.227051 -0.08935,-0.19043 a 0.81511649,0.81511649 0 0 0 -0.06738,-0.115722 l -0.647461,-0.94336 a 0.81511649,0.81511649 0 0 0 -0.108399,-0.125976 l -0.782226,-0.75 a 0.81511649,0.81511649 0 0 0 -0.105469,-0.08643 l -0.908203,-0.616699 a 0.81511649,0.81511649 0 0 0 -0.128906,-0.07324 l -1.076661,-0.474609 a 0.81511649,0.81511649 0 0 0 -0.127441,-0.04248 l -1.313965,-0.338378 a 0.81511649,0.81511649 0 0 0 -0.109863,-0.01904 l -1.64209,-0.188965 a 0.81511649,0.81511649 0 0 0 -0.09521,-0.0059 z m 6.930176,10.467774 -0.05566,0.484863 a 0.81511649,0.81511649 0 0 0 -0.0044,0.04541 l -0.02344,0.392578 0.156738,-0.02197 a 1.630233,1.630233 0 0 1 0.156739,-0.01318 l 0.858398,-0.03516 a 1.630233,1.630233 0 0 1 0.03223,0 l 0.771972,-0.01758 -0.0029,-0.09082 a 0.81511649,0.81511649 0 0 0 -0.0015,-0.0542 l -0.03223,-0.322265 -0.08203,-0.03516 -1.113281,-0.265137 z m 1.995117,4.092774 -0.78955,0.01758 -0.764649,0.03076 -0.807129,0.111329 -0.06885,0.55664 a 0.81511649,0.81511649 0 0 0 -0.0015,0.03955 l -0.05859,0.815918 a 0.81511649,0.81511649 0 0 0 -0.0015,0.01611 l -0.0059,0.127442 0.927246,-0.178711 a 1.630233,1.630233 0 0 1 0.08936,-0.01318 l 0.826172,-0.111328 0.667969,-0.09522 0.0029,-0.654785 a 0.81511649,0.81511649 0 0 0 0,-0.0015 0.81511649,0.81511649 0 0 0 0,-0.0015 0.81511649,0.81511649 0 0 0 0,-0.0015 0.81511649,0.81511649 0 0 0 0,-0.0015 0.81511649,0.81511649 0 0 0 0,-0.0015 0.81511649,0.81511649 0 0 0 0,-0.0015 0.81511649,0.81511649 0 0 0 0,-0.0015 0.81511649,0.81511649 0 0 0 0,-0.0015 0.81511649,0.81511649 0 0 0 0,-0.0015 0.81511649,0.81511649 0 0 0 0,-0.0015 0.81511649,0.81511649 0 0 0 0,-0.0015 0.81511649,0.81511649 0 0 0 0,-0.0015 0.81511649,0.81511649 0 0 0 0,-0.0015 0.81511649,0.81511649 0 0 0 0,-0.0015 0.81511649,0.81511649 0 0 0 0,-0.0015 0.81511649,0.81511649 0 0 0 0,-0.0015 z m -0.121582,4.628906 -0.0835,0.01172 a 1.630233,1.630233 0 0 1 -0.01025,0.0015 l -0.786621,0.105468 -1.160156,0.222657 -0.210938,0.04248 a 0.81511649,0.81511649 0 0 0 0.05859,0.07471 l 0.990235,0.796875 a 0.81511649,0.81511649 0 0 0 1.12207,-0.131836 l 0.01025,-0.203613 a 1.630233,1.630233 0 0 1 0.0029,-0.03076 l 0.06006,-0.812988 a 1.630233,1.630233 0 0 1 0.0073,-0.07617 z" />
      <path
         id="path18360"
         style="color:#000000;fill:#f2f2f2;fill-opacity:1;stroke-linecap:square;stroke-linejoin:round;stroke-miterlimit:10;-inkscape-stroke:none"
         d="m 88.284811,44.759074 a 0.81511649,0.81511649 0 0 0 -0.575684,0.348633 l -0.5625,0.817382 a 0.81511649,0.81511649 0 0 0 -0.140625,0.533204 l 0.08203,0.941894 a 0.81511649,0.81511649 0 0 0 0.0015,0.01758 l 0.08789,0.802735 0.06885,0.807129 a 0.81511649,0.81511649 0 0 0 0.0059,0.04687 l 0.115723,0.788086 0.07324,0.791015 0.07617,0.807129 0.09228,1.246582 a 0.81511649,0.81511649 0 0 0 0.01758,0.117188 l 0.0059,0.02344 v 0.0293 l 0.0044,0.793945 -0.03809,0.808594 -0.112793,1.105957 a 0.81511649,0.81511649 0 0 0 0,0.0059 l -0.07617,0.811523 -0.08203,0.832031 -0.259277,1.519043 a 0.81511649,0.81511649 0 0 0 0,0.0029 l -0.139161,0.830566 -0.367675,1.41211 a 0.81511649,0.81511649 0 0 0 0,0.0029 l -0.213868,0.83789 -0.578613,1.426758 -0.61084,1.508789 -0.307617,0.747071 -0.629883,1.492675 -0.328125,0.736817 -0.332519,0.738281 -0.341309,0.733887 a 0.81511649,0.81511649 0 0 0 -0.0059,0.01758 l -0.322266,0.733887 a 0.81511649,0.81511649 0 0 0 -0.01172,0.02637 l -0.361816,0.903808 -0.306152,0.748536 -0.295899,0.706054 a 0.81511649,0.81511649 0 0 0 -0.02344,0.06885 l -0.442383,1.394531 -0.275391,0.697266 a 0.81511649,0.81511649 0 0 0 -0.03369,0.09961 l -0.369141,1.453125 -0.06006,0.202149 0.93164,0.571289 a 1.630233,1.630233 0 0 1 0.270996,0.209472 l 0.210938,0.200684 0.0044,-0.0249 0.210938,-0.711914 a 0.81511649,0.81511649 0 0 0 0.0073,-0.03076 l 0.358887,-1.417969 0.268066,-0.673828 a 0.81511649,0.81511649 0 0 0 0.01904,-0.05273 l 0.442383,-1.388672 0.28125,-0.678223 a 0.81511649,0.81511649 0 0 0 0.0015,-0.0029 l 0.309082,-0.755859 a 0.81511649,0.81511649 0 0 0 0.0029,-0.0073 l 0.357421,-0.893555 0.313477,-0.714844 0.339844,-0.730957 a 0.81511649,0.81511649 0 0 0 0.0059,-0.01172 l 0.333985,-0.74414 a 0.81511649,0.81511649 0 0 0 0,-0.0015 l 0.331054,-0.74707 a 0.81511649,0.81511649 0 0 0 0.0059,-0.01172 l 0.637207,-1.501465 a 0.81511649,0.81511649 0 0 0 0.0044,-0.01172 l 0.307617,-0.754394 a 0.81511649,0.81511649 0 0 0 0,-0.0015 l 0.612305,-1.510254 0.599121,-1.476563 a 0.81511649,0.81511649 0 0 0 0.03369,-0.102539 l 0.228515,-0.890625 0.376465,-1.447265 a 0.81511649,0.81511649 0 0 0 0.01318,-0.07324 l 0.145019,-0.862793 0.175781,-1.035644 0.269532,0.738281 a 0.81511649,0.81511649 0 0 0 0.0542,0.123047 l 0.541992,0.959473 a 0.81511649,0.81511649 0 0 0 0.09668,0.13623 l 0.08935,0.102539 0.06006,-0.583008 0.0791,-1.075195 -0.0059,-0.783691 a 1.630233,1.630233 0 0 1 0,-0.06445 l 0.02344,-0.785157 V 56.452922 L 89.896139,55.891887 89.695455,55.175578 89.528463,54.12675 89.405416,53.318156 a 0.81511649,0.81511649 0 0 0 -0.01172,-0.05273 l -0.136231,-0.61084 -0.0073,-0.591797 0.03662,-1.054688 a 0.81511649,0.81511649 0 0 0 0,-0.06152 l -0.03076,-0.827637 -0.01758,-0.801269 -0.0044,-0.805664 a 0.81511649,0.81511649 0 0 0 -0.0015,-0.0498 l -0.04834,-0.792481 v -0.785156 l 0.01172,-1.30664 a 0.81511649,0.81511649 0 0 0 -0.911133,-0.818848 z m 20.458009,16.03418 -0.81445,0.01758 -1.18213,0.0249 a 0.81511649,0.81511649 0 0 0 -0.007,0 l -0.81299,0.0249 -0.81005,0.01758 a 0.81511649,0.81511649 0 0 0 -0.0117,0.0029 l -0.81446,0.0293 a 0.81511649,0.81511649 0 0 0 -0.007,0 l -0.42188,0.01758 a 1.630233,1.630233 0 0 1 0.13917,0.673828 l -0.0117,0.953613 0.36181,-0.01611 0.80713,-0.0293 0.81006,-0.02051 a 0.81511649,0.81511649 0 0 0 0.006,0 l 0.81299,-0.0249 1.17773,-0.0249 0.81446,-0.01758 z m -7.91309,0.249023 -0.46582,0.01025 0.0322,0.433594 0.0718,0.732422 a 1.630233,1.630233 0 0 1 0.063,-0.437988 z m -28.256834,10.839844 -1.265625,0.01465 a 0.81511649,0.81511649 0 0 0 -0.04541,0 l -0.856933,0.05859 a 0.81511649,0.81511649 0 0 0 -0.03369,0.0015 l -1.088379,0.120118 a 0.81511649,0.81511649 0 0 0 -0.0029,0 l -0.812989,0.09082 a 0.81511649,0.81511649 0 0 0 -0.01758,0.0029 l -0.830566,0.111328 a 0.81511649,0.81511649 0 0 0 -0.03223,0.0059 l -0.999023,0.177246 -0.79834,0.128906 a 0.81511649,0.81511649 0 0 0 -0.0059,0.0015 l -0.807128,0.137696 a 0.81511649,0.81511649 0 0 0 -0.02344,0.0029 l -0.805664,0.162598 -1.541016,0.304687 a 0.81511649,0.81511649 0 0 0 -0.06299,0.01611 l -0.766113,0.213867 -0.767578,0.168457 -0.79834,0.168457 -0.796875,0.166992 0.335449,1.59668 0.799805,-0.169922 0.79834,-0.168457 a 0.81511649,0.81511649 0 0 0 0.0044,0 l 0.793945,-0.174316 a 0.81511649,0.81511649 0 0 0 0.0498,-0.01172 l 0.758789,-0.212402 1.510254,-0.298829 a 0.81511649,0.81511649 0 0 0 0.0015,-0.0015 l 0.79541,-0.158204 0.791016,-0.134765 0.802734,-0.131836 a 0.81511649,0.81511649 0 0 0 0.01172,-0.0015 l 0.98584,-0.175781 0.805664,-0.106934 0.802734,-0.09228 1.067871,-0.115723 0.818848,-0.0542 1.192383,-0.01172 1.561523,0.159668 1.208496,0.298828 0.960938,0.410157 0.79248,0.530273 0.350098,0.32666 0.153809,0.01611 a 1.630233,1.630233 0 0 1 0.215332,0.03809 l 1.346191,0.322265 a 1.630233,1.630233 0 0 1 0.249024,0.0791 l 0.533203,0.224121 -0.155274,-0.325195 a 0.81511649,0.81511649 0 0 0 -0.06885,-0.117188 l -0.657731,-0.93601 A 0.81511649,0.81511649 0 0 0 78.9186,74.413371 L 78.129049,73.67509 a 0.81511649,0.81511649 0 0 0 -0.104004,-0.08203 l -0.911133,-0.609375 a 0.81511649,0.81511649 0 0 0 -0.133301,-0.07178 l -1.091308,-0.464356 a 0.81511649,0.81511649 0 0 0 -0.123047,-0.04102 L 74.437643,72.07841 A 0.81511649,0.81511649 0 0 0 74.326314,72.0579 l -1.662597,-0.171387 a 0.81511649,0.81511649 0 0 0 -0.09082,-0.0044 z m 6.771973,7.381348 0.0015,0.0073 h 0.01172 z m 0.240235,3.295899 -0.03662,0.310547 a 0.81511649,0.81511649 0 0 0 -0.0029,0.04394 l -0.04834,0.773437 0.344238,-0.04834 a 1.630233,1.630233 0 0 1 0.150879,-0.01611 l 0.859864,-0.04102 a 1.630233,1.630233 0 0 1 0.03223,-0.0015 l 0.604981,-0.01758 -0.01465,-0.590332 a 0.81511649,0.81511649 0 0 0 -0.0044,-0.05566 l -0.0044,-0.04541 -1.051758,-0.243164 -0.714844,-0.06006 z m 1.998047,4.262695 -0.590332,0.01758 -0.767579,0.03662 -1.047363,0.14795 -0.02783,0.213867 a 0.81511649,0.81511649 0 0 0 -0.0029,0.04102 l -0.06152,0.812989 a 0.81511649,0.81511649 0 0 0 0,0.01611 l -0.03516,0.650391 1.21289,-0.232911 a 1.630233,1.630233 0 0 1 0.08057,-0.01318 l 0.821777,-0.117188 0.411621,-0.06152 0.0029,-0.541992 0.0059,-0.830567 a 0.81511649,0.81511649 0 0 0 0,-0.0015 0.81511649,0.81511649 0 0 0 0,-0.0015 0.81511649,0.81511649 0 0 0 0,-0.0015 0.81511649,0.81511649 0 0 0 0,-0.0015 0.81511649,0.81511649 0 0 0 0,-0.0015 0.81511649,0.81511649 0 0 0 0,-0.0015 0.81511649,0.81511649 0 0 0 0,-0.0015 0.81511649,0.81511649 0 0 0 0,-0.0015 0.81511649,0.81511649 0 0 0 0,-0.0015 0.81511649,0.81511649 0 0 0 0,-0.0015 0.81511649,0.81511649 0 0 0 0,-0.0015 0.81511649,0.81511649 0 0 0 0,-0.0015 0.81511649,0.81511649 0 0 0 0,-0.0015 0.81511649,0.81511649 0 0 0 0,-0.0015 0.81511649,0.81511649 0 0 0 0,-0.0015 0.81511649,0.81511649 0 0 0 0,-0.0015 z m -0.02197,4.810547 -0.720703,0.102539 -1.157227,0.221192 0.550781,0.446777 a 0.81511649,0.81511649 0 0 0 1.327149,-0.631348 z" />
      <path
         id="path18380"
         style="color:#000000;fill:#f2f2f2;fill-opacity:1;stroke-linecap:square;stroke-linejoin:round;stroke-miterlimit:10;-inkscape-stroke:none"
         d="m 91.861959,48.58964 a 0.81511649,0.81511649 0 0 0 -0.916992,0.433594 l -0.399902,0.812988 a 0.81511649,0.81511649 0 0 0 -0.08057,0.416016 l 0.06738,0.960938 a 0.81511649,0.81511649 0 0 0 0.0059,0.0542 l 0.108398,0.79541 0.07471,0.791016 0.07031,0.810058 0.06592,0.810059 a 0.81511649,0.81511649 0 0 0 0.0059,0.05713 l 0.03955,0.253418 v 0.05127 l -0.0293,1.103028 a 0.81511649,0.81511649 0 0 0 0,0.02637 l 0.0044,0.802734 -0.02637,0.799805 a 0.81511649,0.81511649 0 0 0 0,0.03223 l 0.0059,0.817383 -0.0835,1.122071 -0.08057,0.799804 -0.0835,0.829102 -0.279785,1.571777 a 0.81511649,0.81511649 0 0 0 -0.0015,0.0044 l -0.14502,0.829101 -0.37207,1.464844 a 0.81511649,0.81511649 0 0 0 -0.0029,0.0044 l -0.208007,0.832031 -0.533204,1.325684 a 0.81511649,0.81511649 0 0 0 -0.0044,0.0088 l -0.292969,0.755859 -0.914062,2.257324 -0.306153,0.748536 -0.631347,1.489746 -0.33252,0.738281 -0.328125,0.730957 a 0.81511649,0.81511649 0 0 0 -0.0059,0.01318 l -0.404297,0.943359 a 0.81511649,0.81511649 0 0 0 -0.0015,0.0059 l -0.314941,0.754395 a 0.81511649,0.81511649 0 0 0 -0.0015,0.0059 l -0.291504,0.71045 a 0.81511649,0.81511649 0 0 0 -0.02197,0.06152 l -0.457031,1.435547 -0.246094,0.720703 a 0.81511649,0.81511649 0 0 0 -0.02051,0.07764 l -0.339843,1.453125 -0.08936,0.288574 0.887695,0.555176 a 1.630233,1.630233 0 0 1 0.2417,0.183105 l 0.28125,0.257813 0.0249,-0.128906 0.218262,-0.697266 a 0.81511649,0.81511649 0 0 0 0.01611,-0.05859 l 0.336914,-1.442871 0.237305,-0.691406 a 0.81511649,0.81511649 0 0 0 0.0029,-0.01758 l 0.449708,-1.410645 0.276855,-0.678223 0.310547,-0.745605 0.401367,-0.933106 0.325195,-0.726562 0.333985,-0.744141 a 0.81511649,0.81511649 0 0 0 0.0059,-0.01611 l 0.637207,-1.504395 a 0.81511649,0.81511649 0 0 0 0.0044,-0.0073 l 0.307617,-0.755859 a 0.81511649,0.81511649 0 0 0 0.0029,-0.0015 l 0.915527,-2.264649 a 0.81511649,0.81511649 0 0 0 0.0059,-0.0088 l 0.292969,-0.758789 0.552246,-1.372558 a 0.81511649,0.81511649 0 0 0 0.03516,-0.105469 l 0.221192,-0.884766 0.382324,-1.49414 a 0.81511649,0.81511649 0 0 0 0.01465,-0.06299 l 0.147949,-0.858398 0.240234,-1.344727 0.361817,0.949219 a 0.81511649,0.81511649 0 0 0 0.05273,0.114258 l 0.536133,0.944824 a 0.81511649,0.81511649 0 0 0 0.09961,0.140625 l 0.07178,0.08057 0.01172,-0.19336 a 1.630233,1.630233 0 0 1 0.0029,-0.01611 l 0.07617,-1.07666 0.03369,-0.792481 0.0029,-0.786621 a 1.630233,1.630233 0 0 1 0,-0.02637 l 0.01611,-0.815918 a 1.630233,1.630233 0 0 1 0,-0.01611 l -0.08789,-0.372071 a 0.81511649,0.81511649 0 0 0 -0.0015,-0.0059 l -0.184571,-0.736817 -0.199218,-1.095703 -0.143555,-0.79834 -0.128906,-0.75 -0.08643,-1.26416 a 0.81511649,0.81511649 0 0 0 -0.0073,-0.06885 l -0.06738,-0.4292 v -0.65039 a 0.81511649,0.81511649 0 0 0 -0.0015,-0.04687 l -0.04687,-0.789551 0.0044,-0.792481 0.0015,-0.815918 a 0.81511649,0.81511649 0 0 0 0,-0.0015 0.81511649,0.81511649 0 0 0 0,-0.0015 v -2.185534 a 0.81511649,0.81511649 0 0 0 -0.62836,-0.792481 z m 20.387701,16.038575 -0.81446,0.02783 -1.5498,0.05127 -0.8086,0.01465 a 0.81511649,0.81511649 0 0 0 -0.0176,0 l -0.81299,0.03223 -0.81446,0.0293 a 0.81511649,0.81511649 0 0 0 -0.003,0.0015 l -0.31933,0.01172 a 1.630233,1.630233 0 0 1 0.51709,1.032715 l 0.0308,0.578613 0.64746,-0.02344 a 0.81511649,0.81511649 0 0 0 10e-4,-0.0015 l 0.80859,-0.03223 0.80713,-0.01318 a 0.81511649,0.81511649 0 0 0 0.0117,-0.0015 l 1.55713,-0.05127 0.81445,-0.02783 z m -7.46631,0.273926 -0.81006,0.01758 -0.0103,0.688476 a 1.630233,1.630233 0 0 0 0,0.0015 1.630233,1.630233 0 0 0 0,0.0015 1.630233,1.630233 0 0 0 0,0.0015 1.630233,1.630233 0 0 0 0,0.0015 1.630233,1.630233 0 0 0 0,0.0015 l -0.004,0.152343 0.0937,0.667969 a 1.630233,1.630233 0 0 1 0.0102,0.101074 l 0.001,0.01025 0.29443,-0.0059 0.0103,-0.65625 a 1.630233,1.630233 0 0 1 0.41455,-0.98291 z m -29.080082,10.987793 -1.299317,0.02051 a 0.81511649,0.81511649 0 0 0 -0.01318,0 l -0.861329,0.0293 a 0.81511649,0.81511649 0 0 0 -0.08203,0.0073 l -1.126465,0.152344 -0.807129,0.104004 -0.832031,0.101074 a 0.81511649,0.81511649 0 0 0 -0.05127,0.0073 l -1.069336,0.202148 -0.796875,0.152344 -0.793946,0.134766 a 0.81511649,0.81511649 0 0 0 -0.0015,0 l -0.814453,0.140625 a 0.81511649,0.81511649 0 0 0 -0.06592,0.01318 l -0.801269,0.206543 -0.780762,0.172852 a 0.81511649,0.81511649 0 0 0 -0.04981,0.01172 l -0.764648,0.218261 -0.770508,0.169922 -0.793945,0.171387 -0.796875,0.172852 0.342773,1.59375 0.796875,-0.172852 0.796875,-0.171387 a 0.81511649,0.81511649 0 0 0 0.0044,-0.0015 l 0.79541,-0.174317 a 0.81511649,0.81511649 0 0 0 0.04834,-0.01318 l 0.766113,-0.219727 0.770508,-0.169922 a 0.81511649,0.81511649 0 0 0 0.02783,-0.0059 l 0.783691,-0.202149 0.780762,-0.133301 0.802734,-0.13623 a 0.81511649,0.81511649 0 0 0 0.01318,-0.0044 l 0.802734,-0.152343 1.042969,-0.194825 0.807129,-0.09961 a 0.81511649,0.81511649 0 0 0 0.0059,0 l 0.812988,-0.105469 a 0.81511649,0.81511649 0 0 0 0.0059,0 l 1.086914,-0.149414 0.812989,-0.0249 1.243652,-0.01904 1.584961,0.161133 1.230469,0.292969 0.981445,0.413085 0.812988,0.498047 0.533203,0.506836 a 1.630233,1.630233 0 0 1 0.208008,0.03223 l 1.362305,0.314941 a 1.630233,1.630233 0 0 1 0.206543,0.06152 l 0.609375,0.22998 -0.23584,-0.481933 a 0.81511649,0.81511649 0 0 0 -0.07031,-0.118653 l -0.669434,-0.925781 a 0.81511649,0.81511649 0 0 0 -0.09961,-0.114258 L 81.351705,77.646282 A 0.81511649,0.81511649 0 0 0 81.21694,77.542278 l -0.938965,-0.575684 a 0.81511649,0.81511649 0 0 0 -0.111328,-0.05713 l -1.101563,-0.46289 a 0.81511649,0.81511649 0 0 0 -0.125976,-0.04102 l -1.347657,-0.319336 a 0.81511649,0.81511649 0 0 0 -0.105469,-0.02051 l -1.6875,-0.171386 a 0.81511649,0.81511649 0 0 0 -0.09521,-0.0044 z m 6.884765,7.432617 0.03955,0.188965 0.0088,0.04981 0.375,0.0249 z m 0.309082,3.524415 -0.0029,0.01611 a 0.81511649,0.81511649 0 0 0 -0.01172,0.08789 l -0.08936,1.08252 a 0.81511649,0.81511649 0 0 0 -0.0015,0.01318 l -0.0073,0.108398 0.47168,-0.06885 a 1.630233,1.630233 0 0 1 0.14209,-0.01318 l 0.858398,-0.04981 a 1.630233,1.630233 0 0 1 0.03223,-0.0015 l 0.413086,-0.01465 -0.01172,-0.383789 a 0.81511649,0.81511649 0 0 0 0,-0.0015 0.81511649,0.81511649 0 0 0 0,-0.0015 0.81511649,0.81511649 0 0 0 0,-0.0015 0.81511649,0.81511649 0 0 0 0,-0.0015 0.81511649,0.81511649 0 0 0 0,-0.0015 0.81511649,0.81511649 0 0 0 0,-0.0015 0.81511649,0.81511649 0 0 0 0,-0.0015 0.81511649,0.81511649 0 0 0 0,-0.0015 0.81511649,0.81511649 0 0 0 0,-0.0015 0.81511649,0.81511649 0 0 0 0,-0.0015 l -0.02197,-0.502441 -0.874512,-0.191895 -0.735352,-0.05713 z m 1.842774,4.420898 -0.317871,0.01172 -0.767578,0.04248 -1.166016,0.171387 -0.05273,0.585938 -0.106934,0.801269 a 0.81511649,0.81511649 0 0 0 -0.0059,0.07178 l -0.01904,0.470215 0.03955,-0.0088 a 1.630233,1.630233 0 0 1 0.02197,-0.0044 l 1.369629,-0.270996 a 1.630233,1.630233 0 0 1 0.07324,-0.01172 l 0.826172,-0.123047 0.09082,-0.01465 a 0.81511649,0.81511649 0 0 0 0,-0.0015 l 0.0029,-0.811524 0.01025,-0.814453 z m -0.178711,5.041992 -0.231445,0.03516 -0.927246,0.183105 a 0.81511649,0.81511649 0 0 0 1.158691,-0.218262 z" />
      <path
         id="path18400"
         style="color:#000000;fill:#f2f2f2;fill-opacity:1;stroke-linecap:square;stroke-linejoin:round;stroke-miterlimit:10;-inkscape-stroke:none"
         d="m 95.005514,52.503703 a 0.81511649,0.81511649 0 0 0 -0.218262,0.04687 0.81511649,0.81511649 0 0 0 -0.5083,0.556641 l -0.213868,0.812988 a 0.81511649,0.81511649 0 0 0 -0.02637,0.259277 l 0.0791,1.187989 a 0.81511649,0.81511649 0 0 0 0,0.01758 l 0.07031,0.808593 0.06152,0.810059 a 0.81511649,0.81511649 0 0 0 0.0088,0.05713 l 0.01172,0.08496 -0.0029,0.402832 -0.0088,0.812988 a 0.81511649,0.81511649 0 0 0 0.0015,0.04834 l 0.03955,0.79834 -0.04394,0.993164 a 0.81511649,0.81511649 0 0 0 0,0.01904 l -0.01758,0.814453 a 0.81511649,0.81511649 0 0 0 0,0.01318 l -0.0015,0.802734 -0.03516,0.818848 -0.0791,1.089844 a 0.81511649,0.81511649 0 0 0 0,0.0073 l -0.0498,0.79541 -0.08936,0.808594 -0.290039,1.558594 a 0.81511649,0.81511649 0 0 0 -0.0015,0.0059 l -0.146484,0.821777 -0.396973,1.491211 a 0.81511649,0.81511649 0 0 0 -0.0015,0.0059 l -0.213867,0.832031 -0.446777,1.142578 -0.597656,1.511719 -0.300293,0.754394 -0.922852,2.25586 -0.316406,0.745605 -0.313477,0.739746 -0.32666,0.726563 a 0.81511649,0.81511649 0 0 0 -0.0073,0.02051 l -0.410156,0.981445 -0.328125,0.736817 a 0.81511649,0.81511649 0 0 0 -0.0059,0.01611 l -0.298828,0.708984 a 0.81511649,0.81511649 0 0 0 -0.02637,0.07031 l -0.46875,1.466308 -0.243164,0.720703 a 0.81511649,0.81511649 0 0 0 -0.02051,0.06885 l -0.360352,1.50293 -0.101074,0.394043 0.897949,0.543457 a 1.630233,1.630233 0 0 1 0.251954,0.1875 l 0.290039,0.263672 0.05566,-0.263672 0.186035,-0.726563 a 0.81511649,0.81511649 0 0 0 0.0015,-0.01172 l 0.355957,-1.472168 0.234375,-0.694336 a 0.81511649,0.81511649 0 0 0 0.0029,-0.01172 l 0.459961,-1.437012 0.282715,-0.669433 0.328125,-0.738282 a 0.81511649,0.81511649 0 0 0 0.0059,-0.01758 l 0.410156,-0.98291 0.32373,-0.725098 a 0.81511649,0.81511649 0 0 0 0.0073,-0.01172 l 0.317871,-0.75 0.317871,-0.751465 a 0.81511649,0.81511649 0 0 0 0.0044,-0.01025 l 0.927246,-2.263184 a 0.81511649,0.81511649 0 0 0 0.0029,-0.0059 l 0.301758,-0.757325 a 0.81511649,0.81511649 0 0 0 0,-0.0015 0.81511649,0.81511649 0 0 0 0,-0.0015 l 0.600586,-1.514649 a 0.81511649,0.81511649 0 0 0 0.0015,-0.0044 l 0.464355,-1.189453 a 0.81511649,0.81511649 0 0 0 0.0293,-0.09375 l 0.224121,-0.874512 0.404297,-1.520508 a 0.81511649,0.81511649 0 0 0 0.01465,-0.06592 l 0.152343,-0.854004 0.294434,-1.584961 a 0.81511649,0.81511649 0 0 0 0.01025,-0.05859 l 0.01172,-0.111328 0.439453,1.148438 a 0.81511649,0.81511649 0 0 0 0.04248,0.09668 l 0.511231,0.947753 a 0.81511649,0.81511649 0 0 0 0.105468,0.150879 l 0.06738,0.07617 0.0015,-0.0293 a 1.630233,1.630233 0 0 1 0.0059,-0.09229 l 0.118653,-1.103027 0.01025,-0.770508 a 1.630233,1.630233 0 0 1 0,-0.01172 l 0.01611,-0.815918 a 1.630233,1.630233 0 0 1 0,-0.03955 l 0.03516,-0.782226 v -0.03076 l -0.09668,-0.414551 a 0.81511649,0.81511649 0 0 0 -0.0073,-0.03076 l -0.193359,-0.700196 -0.14502,-1.056152 a 0.81511649,0.81511649 0 0 0 0,-0.0015 0.81511649,0.81511649 0 0 0 0,-0.0015 0.81511649,0.81511649 0 0 0 0,-0.0015 L 96.40737,61.199016 a 0.81511649,0.81511649 0 0 0 -0.0088,-0.0542 l -0.155274,-0.738281 -0.09668,-1.101562 a 0.81511649,0.81511649 0 0 0 -0.0029,-0.01025 l -0.08203,-0.8042 -0.06592,-0.807128 a 0.81511649,0.81511649 0 0 0 -0.0059,-0.05273 l -0.09082,-0.596191 0.01025,-1.103028 a 0.81511649,0.81511649 0 0 0 0,-0.0015 0.81511649,0.81511649 0 0 0 0,-0.0015 0.81511649,0.81511649 0 0 0 0,-0.0015 0.81511649,0.81511649 0 0 0 0,-0.0015 0.81511649,0.81511649 0 0 0 0,-0.0015 0.81511649,0.81511649 0 0 0 0,-0.0015 0.81511649,0.81511649 0 0 0 0,-0.0015 0.81511649,0.81511649 0 0 0 0,-0.0015 0.81511649,0.81511649 0 0 0 0,-0.0015 0.81511649,0.81511649 0 0 0 0,-0.0015 0.81511649,0.81511649 0 0 0 0,-0.0015 0.81511649,0.81511649 0 0 0 0,-0.0015 0.81511649,0.81511649 0 0 0 0,-0.0015 0.81511649,0.81511649 0 0 0 0,-0.0015 0.81511649,0.81511649 0 0 0 0,-0.0015 l -0.01611,-0.814453 a 0.81511649,0.81511649 0 0 0 0,-0.0015 0.81511649,0.81511649 0 0 0 0,-0.0015 l -0.01904,-0.807129 0.0059,-0.965332 a 0.81511649,0.81511649 0 0 0 -0.874512,-0.815918 z m 20.689456,16.142578 -0.81446,0.02783 -0.958,0.03076 -0.81153,0.02344 -0.81006,0.01611 a 0.81511649,0.81511649 0 0 0 -0.006,0 l -0.81592,0.02197 a 0.81511649,0.81511649 0 0 0 -0.004,0 l -0.81445,0.02637 a 0.81511649,0.81511649 0 0 0 -0.0117,0 l -0.81299,0.03662 -0.81152,0.03223 a 0.81511649,0.81511649 0 0 0 -0.009,0 l -0.77197,0.03808 -0.37647,0.0088 0.0293,0.331054 0.0747,0.777832 0.0659,0.51709 0.25196,-0.0059 a 0.81511649,0.81511649 0 0 0 0.0234,0 l 0.77929,-0.03809 0.81006,-0.03076 a 0.81511649,0.81511649 0 0 0 0.007,0 l 0.81006,-0.03809 0.80713,-0.0249 0.81006,-0.02344 0.81006,-0.01611 a 0.81511649,0.81511649 0 0 0 0.006,0 l 0.81738,-0.02197 a 0.81511649,0.81511649 0 0 0 0.003,0 l 0.96387,-0.03223 0.81445,-0.0249 z m -11.44336,0.294434 0.0688,0.418945 0.0557,0.273926 -0.003,-0.197754 a 1.630233,1.630233 0 0 1 0,-0.04541 l 0.007,-0.445312 z m -25.315432,11.118164 -1.330078,0.0293 a 0.81511649,0.81511649 0 0 0 -0.01611,0 l -0.859863,0.03516 a 0.81511649,0.81511649 0 0 0 -0.07764,0.0073 l -1.182129,0.162597 -0.805664,0.111329 -0.830566,0.106933 a 0.81511649,0.81511649 0 0 0 -0.04248,0.0073 l -1.142578,0.210938 a 0.81511649,0.81511649 0 0 0 -0.01172,0.0029 l -0.789551,0.158203 -0.79541,0.137695 a 0.81511649,0.81511649 0 0 0 -0.0059,0.0029 l -0.810058,0.145019 a 0.81511649,0.81511649 0 0 0 -0.05859,0.01318 l -0.884766,0.224121 -0.780762,0.172851 a 0.81511649,0.81511649 0 0 0 -0.05566,0.01318 l -0.761718,0.224121 -0.769043,0.174317 -0.792481,0.174316 -0.796875,0.175781 0.351563,1.590821 0.796875,-0.175782 0.793945,-0.172851 a 0.81511649,0.81511649 0 0 0 0.0059,-0.0029 l 0.795411,-0.180176 a 0.81511649,0.81511649 0 0 0 0.04834,-0.01318 l 0.760254,-0.222657 0.769043,-0.168457 a 0.81511649,0.81511649 0 0 0 0.02637,-0.0059 l 0.868653,-0.222656 0.780762,-0.140625 0.802734,-0.137696 a 0.81511649,0.81511649 0 0 0 0.02051,-0.0044 l 0.793945,-0.159668 1.116211,-0.208008 0.811524,-0.105469 a 0.81511649,0.81511649 0 0 0 0.0059,0 l 0.808594,-0.111328 1.142578,-0.158203 0.812988,-0.03223 1.281738,-0.02783 0.834961,0.06592 0.773438,0.06738 1.250977,0.288575 0.997558,0.375 0.807129,0.503906 0.687012,0.632812 0.0542,0.07471 a 1.630233,1.630233 0 0 1 0.0498,0.0073 l 1.378418,0.304687 a 1.630233,1.630233 0 0 1 0.205078,0.06006 l 0.65332,0.238769 -0.328125,-0.670898 A 0.81511649,0.81511649 0 0 0 86.2209,83.511369 l -0.672417,-0.91538 A 0.81511649,0.81511649 0 0 0 85.443014,82.477336 L 84.64028,81.739055 a 0.81511649,0.81511649 0 0 0 -0.121582,-0.09228 l -0.937501,-0.585937 a 0.81511649,0.81511649 0 0 0 -0.143554,-0.07031 l -1.123535,-0.424805 a 0.81511649,0.81511649 0 0 0 -0.105469,-0.03076 l -1.359375,-0.314942 a 0.81511649,0.81511649 0 0 0 -0.114258,-0.01904 l -0.834961,-0.06885 a 0.81511649,0.81511649 0 0 0 -0.0029,-0.0015 l -0.878906,-0.06885 a 0.81511649,0.81511649 0 0 0 -0.08203,-0.0029 z m 7.001953,7.495606 0.0791,0.430664 0.631347,0.03809 -0.1333,-0.121582 z m 0.355957,3.713379 -0.09668,0.773438 a 0.81511649,0.81511649 0 0 0 -0.0015,0.01172 l -0.08057,0.725098 0.663574,-0.101074 a 1.630233,1.630233 0 0 1 0.139161,-0.01318 l 0.855468,-0.0542 a 1.630233,1.630233 0 0 1 0.03369,-0.0029 l 0.210937,-0.0088 V 92.41779 a 0.81511649,0.81511649 0 0 0 0,-0.0015 0.81511649,0.81511649 0 0 0 0,-0.0015 0.81511649,0.81511649 0 0 0 0,-0.0015 0.81511649,0.81511649 0 0 0 0,-0.0015 0.81511649,0.81511649 0 0 0 0,-0.0015 0.81511649,0.81511649 0 0 0 0,-0.0015 0.81511649,0.81511649 0 0 0 0,-0.0015 0.81511649,0.81511649 0 0 0 0,-0.0015 0.81511649,0.81511649 0 0 0 0,-0.0015 0.81511649,0.81511649 0 0 0 0,-0.0015 0.81511649,0.81511649 0 0 0 0,-0.0015 0.81511649,0.81511649 0 0 0 0,-0.0015 0.81511649,0.81511649 0 0 0 0,-0.0015 0.81511649,0.81511649 0 0 0 0,-0.0015 0.81511649,0.81511649 0 0 0 0,-0.0015 l -0.02051,-0.814453 a 0.81511649,0.81511649 0 0 0 0,-0.0015 0.81511649,0.81511649 0 0 0 0,-0.0015 0.81511649,0.81511649 0 0 0 0,-0.0015 0.81511649,0.81511649 0 0 0 0,-0.0015 0.81511649,0.81511649 0 0 0 0,-0.0015 0.81511649,0.81511649 0 0 0 0,-0.0015 0.81511649,0.81511649 0 0 0 0,-0.0015 0.81511649,0.81511649 0 0 0 0,-0.0015 0.81511649,0.81511649 0 0 0 0,-0.0015 0.81511649,0.81511649 0 0 0 0,-0.0015 0.81511649,0.81511649 0 0 0 0,-0.0015 0.81511649,0.81511649 0 0 0 0,-0.0015 0.81511649,0.81511649 0 0 0 0,-0.0015 0.81511649,0.81511649 0 0 0 0,-0.0015 l -0.0044,-0.0791 -0.70752,-0.147949 -0.764648,-0.05273 z m 1.728516,4.592285 -0.05713,0.0029 -0.770508,0.04834 -1.262695,0.19043 -0.130371,0.02051 a 0.81511649,0.81511649 0 0 0 0,0.0044 l -0.0791,0.818848 a 0.81511649,0.81511649 0 0 0 -0.0029,0.02051 l -0.105468,1.479493 -0.05566,0.814453 a 0.81511649,0.81511649 0 0 0 0.208007,0.60498 l 0.733887,0.808597 A 0.81511649,0.81511649 0 0 0 87.9186,100.158 l 0.03516,-0.902343 a 0.81511649,0.81511649 0 0 0 0,-0.0015 0.81511649,0.81511649 0 0 0 0,-0.0015 0.81511649,0.81511649 0 0 0 0,-0.0015 0.81511649,0.81511649 0 0 0 0,-0.0015 0.81511649,0.81511649 0 0 0 0,-0.0015 0.81511649,0.81511649 0 0 0 0,-0.0015 0.81511649,0.81511649 0 0 0 0,-0.0015 0.81511649,0.81511649 0 0 0 0,-0.0015 0.81511649,0.81511649 0 0 0 0,-0.0015 0.81511649,0.81511649 0 0 0 0,-0.0015 0.81511649,0.81511649 0 0 0 0,-0.0015 l 0.01758,-0.814453 a 0.81511649,0.81511649 0 0 0 0,-0.0015 0.81511649,0.81511649 0 0 0 0,-0.0015 0.81511649,0.81511649 0 0 0 0,-0.0015 0.81511649,0.81511649 0 0 0 0,-0.0015 l 0.0088,-0.802734 0.03369,-0.802734 a 0.81511649,0.81511649 0 0 0 0.0015,-0.0293 l 0.0059,-0.814453 z" />
      <path
         id="path18420"
         style="color:#000000;fill:#f2f2f2;fill-opacity:1;stroke-linecap:square;stroke-linejoin:round;stroke-miterlimit:10;-inkscape-stroke:none"
         d="m 98.601706,56.56425 a 0.81511649,0.81511649 0 0 0 -0.842285,0.714844 l -0.09668,0.812988 a 0.81511649,0.81511649 0 0 0 -0.0059,0.149414 l 0.06445,0.999024 a 0.81511649,0.81511649 0 0 0 0,0.0088 l 0.06006,0.811523 a 0.81511649,0.81511649 0 0 0 0.0059,0.05859 l 0.02197,0.146484 0.0059,0.486328 -0.01025,0.805664 a 0.81511649,0.81511649 0 0 0 0,0.0029 l -0.0059,0.812988 -0.01318,0.826172 a 0.81511649,0.81511649 0 0 0 0,0.0059 l -0.0059,1.057617 -0.03516,0.799805 a 0.81511649,0.81511649 0 0 0 0,0.01904 l -0.01611,0.815918 a 0.81511649,0.81511649 0 0 0 0,0.0059 l -0.01025,0.807129 -0.123047,1.144043 a 0.81511649,0.81511649 0 0 0 -0.0044,0.04541 l -0.04102,0.807129 -0.05859,0.805664 -0.137695,0.777832 a 0.81511649,0.81511649 0 0 0 -0.0029,0 l -0.14209,0.804199 -0.147949,0.823242 -0.407227,1.520508 a 0.81511649,0.81511649 0 0 0 -0.0015,0.0059 l -0.212403,0.830566 -0.473144,1.207031 -0.298828,0.75586 a 0.81511649,0.81511649 0 0 0 -0.0015,0.0015 l -0.292969,0.754394 -0.304688,0.75293 -0.304687,0.75293 -0.615234,1.502929 -0.312012,0.747071 -0.316406,0.739746 -0.325196,0.728027 a 0.81511649,0.81511649 0 0 0 -0.0073,0.01758 l -0.426269,1.018067 -0.328126,0.736816 a 0.81511649,0.81511649 0 0 0 -0.0073,0.01758 l -0.294433,0.710449 a 0.81511649,0.81511649 0 0 0 -0.02637,0.06445 l -0.474609,1.489746 -0.246094,0.723633 a 0.81511649,0.81511649 0 0 0 -0.01904,0.07178 l -0.36914,1.535156 -0.105469,0.410156 0.941895,0.555176 a 1.630233,1.630233 0 0 1 0.249023,0.181641 l 0.254883,0.224121 0.0498,-0.240234 0.19043,-0.728028 a 0.81511649,0.81511649 0 0 0 0.0029,-0.01611 l 0.361816,-1.505859 0.234375,-0.692872 a 0.81511649,0.81511649 0 0 0 0.0059,-0.01611 l 0.467285,-1.463379 0.276855,-0.667969 0.328125,-0.735351 a 0.81511649,0.81511649 0 0 0 0.0073,-0.01611 l 0.426269,-1.018067 0.323731,-0.726562 a 0.81511649,0.81511649 0 0 0 0.0059,-0.01318 l 0.319336,-0.748535 a 0.81511649,0.81511649 0 0 0 0.0015,-0.0029 l 0.314941,-0.75 a 0.81511649,0.81511649 0 0 0 0.0029,-0.0088 l 0.618164,-1.507324 a 0.81511649,0.81511649 0 0 0 0.0015,-0.0044 l 0.304687,-0.752929 a 0.81511649,0.81511649 0 0 0 0,-0.0015 0.81511649,0.81511649 0 0 0 0,-0.0015 l 0.306153,-0.757324 a 0.81511649,0.81511649 0 0 0 0.0029,-0.0073 l 0.295899,-0.755859 0.297363,-0.755859 a 0.81511649,0.81511649 0 0 0 0.0015,-0.0044 l 0.490723,-1.253906 a 0.81511649,0.81511649 0 0 0 0.03076,-0.09375 l 0.225586,-0.873047 0.411621,-1.54834 a 0.81511649,0.81511649 0 0 0 0.01611,-0.06445 l 0.153808,-0.858398 a 0.81511649,0.81511649 0 0 0 0.0015,-0.0015 l 0.143555,-0.8042 0.146484,-0.818847 a 0.81511649,0.81511649 0 0 0 0.01172,-0.0835 l 0.01904,-0.263672 0.445312,1.303711 a 0.81511649,0.81511649 0 0 0 0.06299,0.140625 l 0.533195,0.936035 a 0.81511649,0.81511649 0 0 0 0.0674,0.101074 l 0.24023,0.303223 0.0132,-0.205078 a 1.630233,1.630233 0 0 1 0.003,-0.02344 l 0.0952,-1.190918 0.0366,-0.788086 0.0102,-0.791015 a 1.630233,1.630233 0 0 1 0,-0.01172 l 0.009,-0.413086 -0.22265,-0.900879 -0.17286,-0.710449 -0.15966,-1.098633 -0.115721,-0.804199 -0.105469,-0.769043 -0.128906,-1.31836 a 0.81511649,0.81511649 0 0 0 0,-0.0015 0.81511649,0.81511649 0 0 0 0,-0.0015 l -0.0835,-0.810059 -0.07764,-0.802734 -0.05859,-0.8042 a 0.81511649,0.81511649 0 0 0 -0.0059,-0.05713 l -0.08496,-0.568359 -0.0015,-0.203613 a 0.81511649,0.81511649 0 0 0 0,-0.0015 0.81511649,0.81511649 0 0 0 0,-0.0015 0.81511649,0.81511649 0 0 0 0,-0.0015 0.81511649,0.81511649 0 0 0 0,-0.0015 l -0.01318,-0.804199 0.0015,-0.807129 a 0.81511649,0.81511649 0 0 0 0,-0.03662 l -0.03955,-0.925781 A 0.81511649,0.81511649 0 0 0 98.601706,56.56425 Z m 21.019044,16.205567 -0.81445,0.01172 -1.11475,0.01611 a 0.81511649,0.81511649 0 0 0 -0.022,0 l -0.81446,0.03223 a 0.81511649,0.81511649 0 0 0 -0.001,0 l -1.32275,0.05713 -0.8086,0.02197 a 0.81511649,0.81511649 0 0 0 -0.006,0 l -0.81592,0.0293 -0.81298,0.0293 a 0.81511649,0.81511649 0 0 0 -0.0103,0 l -0.81445,0.04101 -0.77051,0.03662 -1.37549,0.0249 a 0.81511649,0.81511649 0 0 0 -0.004,0 l -0.81445,0.02051 a 0.81511649,0.81511649 0 0 0 -0.006,0 l -0.73536,0.02051 -0.34716,-0.01172 0.0967,0.621093 a 1.630233,1.630233 0 0 1 0.004,0.03076 l 0.11279,0.808594 a 1.630233,1.630233 0 0 0 0,0.0015 1.630233,1.630233 0 0 0 0,0.0015 l 0.0234,0.174316 0.0762,0.0029 a 0.81511649,0.81511649 0 0 0 0.0527,0.0029 l 0.76172,-0.02344 0.81152,-0.01758 1.38574,-0.02783 a 0.81511649,0.81511649 0 0 0 0.0264,0 l 0.78223,-0.03955 0.80859,-0.03809 0.80713,-0.0293 0.81006,-0.0293 0.81298,-0.02197 a 0.81511649,0.81511649 0 0 0 0.0132,0 l 1.32715,-0.05713 0.80273,-0.03076 1.10449,-0.01758 0.81446,-0.01172 z m -37.347658,11.586914 -1.365234,0.03809 a 0.81511649,0.81511649 0 0 0 -0.01758,0.0015 l -0.858398,0.04102 a 0.81511649,0.81511649 0 0 0 -0.07617,0.0073 l -1.230469,0.174316 -0.805664,0.115723 -0.827636,0.111328 a 0.81511649,0.81511649 0 0 0 -0.04541,0.0059 l -1.21289,0.231446 a 0.81511649,0.81511649 0 0 0 -0.0073,0.0029 l -0.796875,0.159668 -0.79248,0.146485 -0.811523,0.146484 a 0.81511649,0.81511649 0 0 0 -0.05567,0.01172 l -0.97705,0.249023 -0.786621,0.178711 a 0.81511649,0.81511649 0 0 0 -0.0498,0.01465 l -0.761719,0.224121 -0.767578,0.175781 -0.792481,0.177246 -0.796875,0.178711 0.357422,1.59082 0.79541,-0.178711 0.796876,-0.178711 a 0.81511649,0.81511649 0 0 0 0.0029,0 l 0.793946,-0.18164 a 0.81511649,0.81511649 0 0 0 0.04834,-0.01318 l 0.761719,-0.224121 0.769043,-0.175781 a 0.81511649,0.81511649 0 0 0 0.02051,-0.0073 l 0.960937,-0.243164 0.782227,-0.140625 a 0.81511649,0.81511649 0 0 0 0.0029,0 l 0.799804,-0.146485 a 0.81511649,0.81511649 0 0 0 0.01611,-0.0044 l 0.79834,-0.159668 1.186523,-0.228516 0.808594,-0.106934 a 0.81511649,0.81511649 0 0 0 0.0059,-0.0029 l 0.808594,-0.112793 a 0.81511649,0.81511649 0 0 0 0.0015,0 l 1.193848,-0.169922 0.811523,-0.03955 1.318359,-0.03662 0.837891,0.05566 0.79541,0.06152 1.27002,0.28125 1.007812,0.366211 0.814453,0.492187 0.688477,0.624023 0.193359,0.257813 1.346192,0.28125 a 1.630233,1.630233 0 0 1 0.206543,0.05859 l 0.689941,0.241699 -0.42334,-0.849609 a 0.81511649,0.81511649 0 0 0 -0.0791,-0.127442 L 88.94985,86.827923 A 0.81511649,0.81511649 0 0 0 88.845846,86.7122 l -0.807129,-0.728027 a 0.81511649,0.81511649 0 0 0 -0.124512,-0.09375 l -0.949218,-0.572754 a 0.81511649,0.81511649 0 0 0 -0.14209,-0.06738 l -1.133789,-0.414551 a 0.81511649,0.81511649 0 0 0 -0.102539,-0.0293 l -1.376954,-0.306152 a 0.81511649,0.81511649 0 0 0 -0.115722,-0.01611 l -0.856934,-0.06445 a 0.81511649,0.81511649 0 0 0 -0.0059,-0.0015 l -0.878906,-0.05859 a 0.81511649,0.81511649 0 0 0 -0.0791,-0.0029 z m 7.114746,7.554199 0.118653,0.640137 0.774902,0.03809 a 1.630233,1.630233 0 0 1 0.01318,0 l 0.08496,0.0059 -0.336915,-0.298829 z m 0.317871,3.912598 -0.08203,0.621094 a 0.81511649,0.81511649 0 0 0 -0.0029,0.02051 l -0.08936,0.811523 a 0.81511649,0.81511649 0 0 0 -0.0015,0.02637 l -0.06299,0.8042 -0.07617,0.808593 a 0.81511649,0.81511649 0 0 0 -0.0015,0.01611 l -0.05859,0.782226 -0.114257,0.783686 a 0.81511649,0.81511649 0 0 0 -0.0029,0.0396 l -0.08057,0.81884 a 0.81511649,0.81511649 0 0 0 -0.0015,0.0132 l -0.114258,1.41943 a 0.81511649,0.81511649 0 0 0 -0.0015,0.004 l -0.05859,0.81299 a 0.81511649,0.81511649 0 0 0 0.205078,0.60498 l 0.728028,0.81299 a 0.81511649,0.81511649 0 0 0 1.422363,-0.52588 l 0.03076,-1.2539 a 0.81511649,0.81511649 0 0 0 0,-0.001 0.81511649,0.81511649 0 0 0 0,-10e-4 0.81511649,0.81511649 0 0 0 0,-0.001 l 0.01758,-0.81445 a 0.81511649,0.81511649 0 0 0 0,-0.001 0.81511649,0.81511649 0 0 0 0,-0.001 0.81511649,0.81511649 0 0 0 0,-10e-4 l 0.01172,-0.80273 0.03955,-0.8042 a 0.81511649,0.81511649 0 0 0 0,-0.0293 l 0.01025,-0.812983 0.01465,-0.810059 a 0.81511649,0.81511649 0 0 0 0,-0.0015 0.81511649,0.81511649 0 0 0 0,-0.0015 0.81511649,0.81511649 0 0 0 0,-0.0015 l 0.01172,-0.837891 a 0.81511649,0.81511649 0 0 0 0,-0.03076 l -0.02051,-0.959472 0.0059,-0.799805 a 0.81511649,0.81511649 0 0 0 0,-0.0293 l -0.01318,-0.505371 -0.525878,-0.104004 -0.785157,-0.04687 z" />
      <path
         id="path18440"
         style="color:#000000;fill:#f2f2f2;fill-opacity:1;stroke-linecap:square;stroke-linejoin:round;stroke-miterlimit:10;-inkscape-stroke:none"
         d="m 102.37075,60.765422 a 0.81511649,0.81511649 0 0 0 -0.2124,0.02783 0.81511649,0.81511649 0 0 0 -0.54346,0.481934 l -0.32959,0.810058 a 0.81511649,0.81511649 0 0 0 -0.0542,0.389649 l 0.10107,1.003418 0.0659,0.802734 0.0571,0.810059 0.0571,0.807129 v 0.0059 l -0.0102,0.476074 a 0.81511649,0.81511649 0 0 0 0,0.05127 l 0.0322,0.79248 -0.0615,1.135254 a 0.81511649,0.81511649 0 0 0 0,0.0293 l -0.0161,0.814453 a 0.81511649,0.81511649 0 0 0 0,0.0059 l -0.0103,0.805665 -0.0366,0.814453 -0.0981,1.204101 a 0.81511649,0.81511649 0 0 0 0,0.01172 l -0.0527,0.796875 -0.0937,0.811524 -0.14795,0.83496 a 0.81511649,0.81511649 0 0 0 -0.001,0.0029 l -0.13916,0.79834 -0.15381,0.827637 -0.1919,0.771972 -0.19482,0.783692 -0.22559,0.823242 -0.56396,1.429688 -0.304688,0.754394 a 0.81511649,0.81511649 0 0 0 0,0.0015 l -0.303222,0.75293 -0.306153,0.755859 a 0.81511649,0.81511649 0 0 0 -0.0029,0.0015 l -0.301758,0.748535 -0.314942,0.741211 a 0.81511649,0.81511649 0 0 0 -0.0015,0.0044 l -0.313477,0.742675 -0.32959,0.735352 a 0.81511649,0.81511649 0 0 0 0,0.0029 l -0.32959,0.739746 -0.333984,0.726562 a 0.81511649,0.81511649 0 0 0 -0.01611,0.03516 l -0.42334,1.042968 -0.307617,0.751465 -0.292969,0.713379 a 0.81511649,0.81511649 0 0 0 -0.02051,0.06006 l -0.492187,1.526367 -0.246094,0.722168 a 0.81511649,0.81511649 0 0 0 -0.01611,0.05127 l -0.417481,1.555665 -0.112793,0.380859 a 1.630233,1.630233 0 0 1 0.127441,0.05713 l 0.960938,0.553711 a 1.630233,1.630233 0 0 1 0.249023,0.175781 l 0.109864,0.09375 0.01758,-0.08789 0.212402,-0.714843 a 0.81511649,0.81511649 0 0 0 0.0088,-0.02344 l 0.413086,-1.54248 0.23877,-0.70459 a 0.81511649,0.81511649 0 0 0 0.0059,-0.01172 l 0.481934,-1.50293 0.28125,-0.682617 0.309082,-0.755859 a 0.81511649,0.81511649 0 0 0 0,-0.0015 0.81511649,0.81511649 0 0 0 0,-0.0015 l 0.41748,-1.026855 0.331055,-0.713379 a 0.81511649,0.81511649 0 0 0 0.0029,-0.01172 l 0.331054,-0.741211 0.333985,-0.744141 a 0.81511649,0.81511649 0 0 0 0.0073,-0.01758 l 0.314941,-0.75 0.317871,-0.74707 a 0.81511649,0.81511649 0 0 0 0.0059,-0.01318 l 0.304689,-0.754394 0.30908,-0.757325 a 0.81511649,0.81511649 0 0 0 0.001,-0.0044 l 0.30029,-0.75293 0.30762,-0.755859 a 0.81511649,0.81511649 0 0 0 10e-4,-0.0059 l 0.58155,-1.475097 a 0.81511649,0.81511649 0 0 0 0.0293,-0.08643 l 0.23877,-0.874512 a 0.81511649,0.81511649 0 0 0 0.004,-0.01611 L 102.11294,77.283 a 0.81511649,0.81511649 0 0 0 0,-0.0015 l 0.19775,-0.795411 a 0.81511649,0.81511649 0 0 0 0.0117,-0.0498 l 0.1582,-0.855469 a 0.81511649,0.81511649 0 0 0 10e-4,-0.0088 l 0.13916,-0.799805 0.14502,-0.799805 0.36914,1.067872 a 0.81511649,0.81511649 0 0 0 0.0601,0.1333 l 0.53759,0.952149 a 0.81511649,0.81511649 0 0 0 0.0703,0.104004 l 0.28711,0.364746 a 1.630233,1.630233 0 0 1 0.003,-0.04834 l 0.12158,-1.17334 0.0366,-0.751465 -10e-4,-0.776367 a 1.630233,1.630233 0 0 1 10e-4,-0.09961 l 0.0234,-0.395508 -0.0425,-0.120117 -0.24463,-1.03418 -0.167,-0.714844 -0.13183,-1.117676 a 0.81511649,0.81511649 0 0 0 -0.0117,-0.06445 l -0.1582,-0.791015 -0.12305,-0.739746 -0.085,-1.346192 a 0.81511649,0.81511649 0 0 0 0,-0.0015 0.81511649,0.81511649 0 0 0 0,-0.0015 0.81511649,0.81511649 0 0 0 0,-0.0015 0.81511649,0.81511649 0 0 0 0,-0.0015 0.81511649,0.81511649 0 0 0 0,-0.0015 l -0.0615,-0.817383 a 0.81511649,0.81511649 0 0 0 -0.006,-0.0498 l -0.10108,-0.74414 0.004,-0.203614 a 0.81511649,0.81511649 0 0 0 0,-0.0015 0.81511649,0.81511649 0 0 0 0,-0.0015 0.81511649,0.81511649 0 0 0 0,-0.0015 l 0.0249,-1.630371 a 0.81511649,0.81511649 0 0 0 0,-0.0015 0.81511649,0.81511649 0 0 0 0,-0.0044 0.81511649,0.81511649 0 0 0 0,-0.0044 0.81511649,0.81511649 0 0 0 0,-0.0044 0.81511649,0.81511649 0 0 0 0,-0.0044 l -0.006,-0.811524 0.019,-1.54248 a 0.81511649,0.81511649 0 0 0 -0.81445,-0.826172 z m 21.05566,16.083985 -0.81445,0.04394 -1.20117,0.06738 -0.80713,0.0293 a 0.81511649,0.81511649 0 0 0 -0.0132,0 l -0.80127,0.04102 -0.83204,0.03516 a 0.81511649,0.81511649 0 0 0 -0.0117,0.0015 l -0.81153,0.04687 -0.80859,0.04102 a 0.81511649,0.81511649 0 0 0 -0.0102,0 l -0.81592,0.05127 a 0.81511649,0.81511649 0 0 0 -0.006,0.0015 l -0.81153,0.05713 a 0.81511649,0.81511649 0 0 0 -0.001,0 l -0.76318,0.05713 -1.29346,0.03662 a 0.81511649,0.81511649 0 0 0 -0.009,0 l -0.81152,0.03076 -0.73829,0.02637 -1.27734,-0.03223 a 0.81511649,0.81511649 0 0 0 -0.004,0 l -0.70899,-0.01465 -1.15429,-0.137695 0.0352,0.150879 0.36182,1.125 0.22412,0.437988 0.38086,0.04541 a 0.81511649,0.81511649 0 0 0 0.0776,0.0073 l 0.74853,0.01465 1.29932,0.03369 a 0.81511649,0.81511649 0 0 0 0.0483,0 l 0.76318,-0.02783 a 0.81511649,0.81511649 0 0 0 0.004,0 l 0.81006,-0.03076 1.30957,-0.03662 a 0.81511649,0.81511649 0 0 0 0.0352,-0.0029 l 0.7793,-0.05859 0.80713,-0.05713 0.80859,-0.0498 0.80566,-0.04102 a 0.81511649,0.81511649 0 0 0 0.006,0 l 0.8086,-0.04687 0.8291,-0.03516 a 0.81511649,0.81511649 0 0 0 0.007,0 l 0.79834,-0.04102 0.80713,-0.0293 a 0.81511649,0.81511649 0 0 0 0.0176,0 l 1.2085,-0.06738 0.81445,-0.04394 z m -37.705076,11.935547 -1.40332,0.05127 a 0.81511649,0.81511649 0 0 0 -0.01758,0.0015 l -0.855469,0.04687 a 0.81511649,0.81511649 0 0 0 -0.07178,0.0073 l -1.283203,0.1875 a 0.81511649,0.81511649 0 0 0 -0.0044,0 l -0.802734,0.121582 -0.826172,0.117188 a 0.81511649,0.81511649 0 0 0 -0.03809,0.0059 l -1.293457,0.250489 a 0.81511649,0.81511649 0 0 0 -0.01611,0.0015 l -0.788086,0.166993 -0.788085,0.146484 a 0.81511649,0.81511649 0 0 0 -0.0029,0 l -0.811524,0.152344 a 0.81511649,0.81511649 0 0 0 -0.0498,0.01172 l -1.081055,0.272461 -0.782227,0.180175 a 0.81511649,0.81511649 0 0 0 -0.05273,0.01318 l -0.764648,0.228516 -0.764649,0.18164 -0.793945,0.181641 -0.793946,0.18164 0.363282,1.587891 0.793945,-0.181641 0.796875,-0.18164 a 0.81511649,0.81511649 0 0 0 0.0059,0 l 0.793946,-0.1875 a 0.81511649,0.81511649 0 0 0 0.04395,-0.01318 l 0.761719,-0.227051 0.766113,-0.175781 a 0.81511649,0.81511649 0 0 0 0.01904,-0.0059 l 1.064942,-0.269531 0.785156,-0.14795 0.796875,-0.146484 a 0.81511649,0.81511649 0 0 0 0.01904,-0.0044 l 0.793945,-0.165527 1.265625,-0.244629 0.810059,-0.115723 a 0.81511649,0.81511649 0 0 0 0.0073,0 l 0.805664,-0.120117 1.243652,-0.18164 0.812989,-0.04687 1.35498,-0.04981 0.833496,0.05127 0.823243,0.05713 1.283203,0.266602 1.022461,0.361816 0.820312,0.481934 0.691406,0.609375 0.351563,0.457031 1.265625,0.251953 a 1.630233,1.630233 0 0 1 0.203613,0.05273 l 0.717774,0.243164 -0.533203,-1.047363 a 0.81511649,0.81511649 0 0 0 -0.08057,-0.125977 l -0.679687,-0.887695 a 0.81511649,0.81511649 0 0 0 -0.108399,-0.112793 l -0.808594,-0.713379 a 0.81511649,0.81511649 0 0 0 -0.124511,-0.09229 l -0.955078,-0.5625 a 0.81511649,0.81511649 0 0 0 -0.14209,-0.06592 l -1.151367,-0.404297 a 0.81511649,0.81511649 0 0 0 -0.10254,-0.0293 l -1.393066,-0.291504 a 0.81511649,0.81511649 0 0 0 -0.109863,-0.01318 l -0.881836,-0.06006 a 0.81511649,0.81511649 0 0 0 -0.0059,0 l -0.875976,-0.05566 a 0.81511649,0.81511649 0 0 0 -0.0791,-0.0015 z m 7.234864,7.636231 0.08643,0.454101 0.09228,0.839356 0.130371,1.382812 0.0059,0.13916 -0.0059,0.03223 a 0.81511649,0.81511649 0 0 0 -0.0059,0.0293 l -0.134765,0.805666 a 0.81511649,0.81511649 0 0 0 -0.0088,0.085 l -0.08789,1.46485 -0.07471,0.7998 a 0.81511649,0.81511649 0 0 0 -0.0015,0.0132 l -0.06152,0.78663 -0.112793,0.78515 a 0.81511649,0.81511649 0 0 0 -0.0044,0.0352 l -0.08203,0.79394 -0.114258,0.79395 a 0.81511649,0.81511649 0 0 0 -0.0073,0.0454 l -0.07178,0.81592 a 0.81511649,0.81511649 0 0 0 -0.0044,0.0395 l -0.06152,1.56299 a 0.81511649,0.81511649 0 0 0 0.23584,0.60791 l 0.812988,0.81591 a 0.81511649,0.81511649 0 0 0 1.391601,-0.5625 l 0.01611,-1.03857 a 0.81511649,0.81511649 0 0 0 0,-10e-4 0.81511649,0.81511649 0 0 0 0,-0.001 0.81511649,0.81511649 0 0 0 0,-0.001 0.81511649,0.81511649 0 0 0 0,-10e-4 0.81511649,0.81511649 0 0 0 0,-0.001 0.81511649,0.81511649 0 0 0 0,-0.001 l 0.0059,-1.47656 0.03809,-0.79688 a 0.81511649,0.81511649 0 0 0 0.0015,-0.0249 l 0.01172,-0.81299 0.01904,-0.81445 a 0.81511649,0.81511649 0 0 0 0,-0.001 0.81511649,0.81511649 0 0 0 0,-0.001 0.81511649,0.81511649 0 0 0 0,-10e-4 l 0.01611,-0.81446 0.01611,-0.83935 a 0.81511649,0.81511649 0 0 0 0,-0.0366 l -0.04102,-1.62159 -0.02051,-0.812989 a 0.81511649,0.81511649 0 0 0 0,-0.0015 0.81511649,0.81511649 0 0 0 0,-0.0073 0.81511649,0.81511649 0 0 0 0,-0.0044 0.81511649,0.81511649 0 0 0 0,-0.0073 l -0.02344,-0.509765 0.114258,-0.5625 a 0.81511649,0.81511649 0 0 0 0.0059,-0.03809 L 95.06414,98.552388 94.756523,97.959126 94.2658,97.333638 93.687187,96.835591 92.99871,96.440083 Z" />
      <path
         style="color:#000000;fill:#f2f2f2;fill-opacity:1;stroke-linecap:square;stroke-linejoin:round;stroke-miterlimit:10;-inkscape-stroke:none"
         d="m 105.98633,65.099609 a 0.81511649,0.81511649 0 0 0 -0.80078,0.798828 l -0.0195,1.054688 a 0.81511649,0.81511649 0 0 0 0,0.01172 l -0.002,0.814453 a 0.81511649,0.81511649 0 0 0 0,0.04102 l 0.0371,0.792969 -0.0137,0.789063 a 0.81511649,0.81511649 0 0 0 0,0.02344 l 0.0117,0.814453 0.002,0.800782 -0.0195,0.798828 -0.0684,1.136718 a 0.81511649,0.81511649 0 0 0 0,0.002 l -0.0469,0.814453 a 0.81511649,0.81511649 0 0 0 -0.002,0.05078 l 0.002,0.796875 -0.0391,0.794922 -0.12304,1.193359 a 0.81511649,0.81511649 0 0 0 -0.002,0.02734 l -0.0547,0.798828 -0.0898,0.820313 -0.11718,0.86914 -0.11133,0.78711 -0.1543,0.80664 -0.20508,0.792969 -0.20508,0.785156 -0.22461,0.822266 -0.45507,1.175781 a 0.81511649,0.81511649 0 0 0 -0.002,0.0039 l -0.28906,0.75586 -0.29687,0.753906 a 0.81511649,0.81511649 0 0 0 -0.002,0.0059 l -0.29101,0.753907 -0.30274,0.748046 a 0.81511649,0.81511649 0 0 0 0,0.002 l -0.30664,0.755859 -0.30469,0.753906 -0.30468,0.748047 -0.31641,0.748047 a 0.81511649,0.81511649 0 0 0 -0.002,0 l -0.31055,0.738281 a 0.81511649,0.81511649 0 0 0 -0.004,0.0059 l -0.45507,1.099609 -0.318363,0.740234 -0.310547,0.69336 a 0.81511649,0.81511649 0 0 0 -0.0293,0.07422 l -0.267578,0.789063 a 0.81511649,0.81511649 0 0 0 -0.002,0.0039 l -0.25586,0.769531 -0.248046,0.722657 a 0.81511649,0.81511649 0 0 0 -0.01758,0.06055 L 98.4375,96.855469 98.240234,97.625 98.011719,98.34375 a 0.81511649,0.81511649 0 0 0 -0.02148,0.08594 l -0.126953,0.621094 -0.394531,-1.158203 A 0.81511649,0.81511649 0 0 0 97.419925,97.7793 l -0.564453,-1.085938 a 0.81511649,0.81511649 0 0 0 -0.08203,-0.126953 l -0.683593,-0.871094 a 0.81511649,0.81511649 0 0 0 -0.109375,-0.115234 l -0.814453,-0.701172 a 0.81511649,0.81511649 0 0 0 -0.125,-0.08789 L 94.07813,94.236331 a 0.81511649,0.81511649 0 0 0 -0.144531,-0.06641 l -1.160157,-0.390625 a 0.81511649,0.81511649 0 0 0 -0.101562,-0.02734 l -1.410156,-0.28125 a 0.81511649,0.81511649 0 0 0 -0.109375,-0.01367 l -0.90625,-0.05273 a 0.81511649,0.81511649 0 0 0 -0.0059,-0.002 l -0.878906,-0.04492 a 0.81511649,0.81511649 0 0 0 -0.07813,0 l -1.441406,0.06445 a 0.81511649,0.81511649 0 0 0 -0.01563,0 l -0.857422,0.05469 a 0.81511649,0.81511649 0 0 0 -0.06836,0.0078 l -1.333985,0.201172 a 0.81511649,0.81511649 0 0 0 -0.002,0 l -0.808594,0.123047 -0.826172,0.123047 a 0.81511649,0.81511649 0 0 0 -0.03711,0.0078 l -1.369141,0.269531 a 0.81511649,0.81511649 0 0 0 -0.0098,0.002 l -0.792969,0.169922 -0.794922,0.154297 -0.808594,0.154297 a 0.81511649,0.81511649 0 0 0 -0.04492,0.0098 l -1.181641,0.298828 -0.789063,0.185547 a 0.81511649,0.81511649 0 0 0 -0.05078,0.01367 l -0.759765,0.232421 -0.767579,0.183594 -0.789062,0.185547 -0.792969,0.185547 0.371094,1.585937 0.792969,-0.185546 0.791015,-0.183594 a 0.81511649,0.81511649 0 0 0 0.0059,-0.002 l 0.792968,-0.191407 a 0.81511649,0.81511649 0 0 0 0.04687,-0.01172 L 78.5,96.765625 79.271484,96.583984 a 0.81511649,0.81511649 0 0 0 0.01367,-0.0039 l 1.164063,-0.294922 0.785156,-0.15039 a 0.81511649,0.81511649 0 0 0 0.002,0 l 0.800781,-0.15625 a 0.81511649,0.81511649 0 0 0 0.01367,-0.002 l 0.794922,-0.167968 1.34375,-0.267578 L 85,95.419922 a 0.81511649,0.81511649 0 0 0 0.002,0 l 0.806641,-0.123047 1.298828,-0.195313 0.814453,-0.05273 1.394531,-0.06055 0.837891,0.04297 0.84375,0.05078 1.304687,0.257813 1.033203,0.349609 0.824219,0.474609 0.697266,0.59961 0.58789,0.75 0.5,0.96289 0.419922,1.226563 0.175782,0.835934 0.15039,0.77735 0.0918,0.83984 0.128906,1.35938 0.03125,0.73242 -0.08203,0.38476 a 0.81511649,0.81511649 0 0 0 -0.01563,0.10157 l -0.121094,1.44726 -0.07031,0.80664 -0.07813,0.8125 a 0.81511649,0.81511649 0 0 0 0,0.008 l -0.06836,0.78711 -0.117187,0.78516 a 0.81511649,0.81511649 0 0 0 -0.0039,0.0332 l -0.08789,0.79492 -0.119141,0.80079 a 0.81511649,0.81511649 0 0 0 -0.0059,0.0508 l -0.07031,0.84179 a 0.81511649,0.81511649 0 0 0 -0.002,0.0156 l -0.04883,0.81641 a 0.81511649,0.81511649 0 0 0 0.232422,0.62304 l 0.808594,0.81836 a 0.81511649,0.81511649 0 0 0 1.394531,-0.56055 l 0.01953,-1.30273 a 0.81511649,0.81511649 0 0 0 0,-0.008 l 0.0098,-1.46875 0.04102,-0.79688 a 0.81511649,0.81511649 0 0 0 0,-0.0234 l 0.01563,-0.8125 0.02344,-0.8125 a 0.81511649,0.81511649 0 0 0 0,-0.004 l 0.01758,-0.81445 a 0.81511649,0.81511649 0 0 0 0,-0.004 l 0.01758,-0.8418 a 0.81511649,0.81511649 0 0 0 0,-0.0352 l -0.03516,-1.57227 a 0.81511649,0.81511649 0 0 0 0,-0.002 l -0.01758,-0.73047 0.04492,-0.21094 a 0.81511649,0.81511649 0 0 0 0.0078,-0.043 l 0.125,-0.80273 0.138672,-0.79688 a 0.81511649,0.81511649 0 0 0 0.0078,-0.0508 l 0.11914,-1.07812 0.154297,-0.72852 0.179688,-0.78906 a 0.81511649,0.81511649 0 0 0 0.0039,-0.01953 l 0.216797,-1.070312 0.222656,-0.701172 a 0.81511649,0.81511649 0 0 0 0.01172,-0.04297 l 0.203126,-0.789062 0.20312,-0.785156 0.23828,-0.695313 a 0.81511649,0.81511649 0 0 0 0.002,-0.0078 l 0.25782,-0.771485 0.2539,-0.75 0.29883,-0.664062 a 0.81511649,0.81511649 0 0 0 0.006,-0.01367 l 0.32227,-0.751953 a 0.81511649,0.81511649 0 0 0 0.004,-0.0078 l 0.45703,-1.101562 0.31055,-0.736328 0.31836,-0.75 a 0.81511649,0.81511649 0 0 0 0.004,-0.01172 L 103,89.462891 a 0.81511649,0.81511649 0 0 0 0,-0.002 l 0.30664,-0.755859 0.30664,-0.757812 0.30469,-0.751954 a 0.81511649,0.81511649 0 0 0 0.006,-0.01367 l 0.29101,-0.757813 0.29883,-0.755859 a 0.81511649,0.81511649 0 0 0 0.002,-0.0078 l 0.29101,-0.759765 0.46875,-1.212891 a 0.81511649,0.81511649 0 0 0 0.0273,-0.08203 l 0.23633,-0.865235 a 0.81511649,0.81511649 0 0 0 0.002,-0.0078 l 0.20703,-0.789063 a 0.81511649,0.81511649 0 0 0 0,-0.002 l 0.21289,-0.818359 a 0.81511649,0.81511649 0 0 0 0.0117,-0.05273 l 0.16211,-0.851562 a 0.81511649,0.81511649 0 0 0 0.006,-0.03906 l 0.11523,-0.810546 a 0.81511649,0.81511649 0 0 0 0,-0.0039 l 0.11914,-0.882812 a 0.81511649,0.81511649 0 0 0 0.002,-0.01953 l 0.0918,-0.847657 a 0.81511649,0.81511649 0 0 0 0.004,-0.03125 l 0.004,-0.06641 0.10938,0.478516 a 0.81511649,0.81511649 0 0 0 0.0195,0.06836 l 0.42383,1.318359 a 0.81511649,0.81511649 0 0 0 0.0508,0.121094 l 0.48633,0.951172 a 0.81511649,0.81511649 0 0 0 0.0859,0.134766 l 0.55469,0.701172 a 0.81511649,0.81511649 0 0 0 0.0996,0.103515 l 0.61133,0.541016 a 0.81511649,0.81511649 0 0 0 0.11914,0.08789 l 0.71289,0.429688 a 0.81511649,0.81511649 0 0 0 0.12891,0.06445 l 0.89257,0.339844 a 0.81511649,0.81511649 0 0 0 0.0977,0.03125 l 1.12695,0.273437 a 0.81511649,0.81511649 0 0 0 0.0937,0.01758 l 1.48633,0.183594 a 0.81511649,0.81511649 0 0 0 0.082,0.0059 l 0.73438,0.01563 1.24805,0.04883 a 0.81511649,0.81511649 0 0 0 0.0586,0 l 0.75586,-0.02539 0.80859,-0.01563 1.22266,-0.02344 a 0.81511649,0.81511649 0 0 0 0.0371,-0.002 l 0.76953,-0.04883 0.80859,-0.03906 0.80664,-0.03711 0.81055,-0.0293 a 0.81511649,0.81511649 0 0 0 0.0137,0 L 123,83.146484 a 0.81511649,0.81511649 0 0 0 0.008,0 l 0.78125,-0.05078 1.61524,-0.01953 a 0.81511649,0.81511649 0 0 0 0.008,0 l 1.24023,-0.02539 0.81641,-0.01563 -0.0332,-1.628906 -0.81641,0.01563 -1.23633,0.02539 -1.63281,0.01758 a 0.81511649,0.81511649 0 0 0 -0.043,0.002 l -0.79687,0.05078 -1.25586,0.06641 -0.8086,0.0293 a 0.81511649,0.81511649 0 0 0 -0.01,0 l -0.8125,0.03906 -0.81446,0.03711 a 0.81511649,0.81511649 0 0 0 -0.0137,0.002 l -0.75781,0.04883 -1.20508,0.02148 -0.81445,0.01563 a 0.81511649,0.81511649 0 0 0 -0.0117,0.002 l -0.73242,0.02344 -1.22461,-0.04687 a 0.81511649,0.81511649 0 0 0 -0.0137,0 l -0.70117,-0.01563 -1.39844,-0.173828 -1.03125,-0.25 -0.77539,-0.294922 -0.58789,-0.355468 -0.50196,-0.44336 -0.45898,-0.582031 -0.41992,-0.820313 -0.39258,-1.222656 -0.24219,-1.058594 -0.15234,-0.71289 -0.15821,-1.154297 -0.11132,-0.808594 a 0.81511649,0.81511649 0 0 0 -0.002,-0.01563 l -0.11718,-0.740234 -0.0684,-1.324219 a 0.81511649,0.81511649 0 0 0 0,-0.0059 l -0.0469,-0.810547 a 0.81511649,0.81511649 0 0 0 -0.006,-0.05664 l -0.10351,-0.802734 -0.0742,-0.792969 -0.0703,-0.804687 -0.0527,-0.802735 a 0.81511649,0.81511649 0 0 0 -0.002,-0.03125 l -0.10742,-1.013672 -0.0391,-0.791015 a 0.81511649,0.81511649 0 0 0 -0.82812,-0.771485 z"
         id="path18460" />
    </g>
  </g>
</svg>
